<svg width="110" height="38" viewBox="0 0 110 38" fill="none" xmlns="http://www.w3.org/2000/svg">
<path d="M16.3 23.8114H17.5898L18.6709 25.234L18.9554 25.6133L20.5677 27.7567H19.2779L18.2157 26.3341L17.9502 25.9737L16.3 23.8114ZM20.966 21.9905C20.966 23.0148 20.7811 23.8999 20.4112 24.646C20.0414 25.3921 19.534 25.9674 18.8891 26.3721C18.2442 26.7767 17.5076 26.979 16.6793 26.979C15.8511 26.979 15.1145 26.7767 14.4696 26.3721C13.8247 25.9674 13.3173 25.3921 12.9474 24.646C12.5775 23.8999 12.3926 23.0148 12.3926 21.9905C12.3926 20.9662 12.5775 20.0811 12.9474 19.335C13.3173 18.5889 13.8247 18.0136 14.4696 17.6089C15.1145 17.2043 15.8511 17.002 16.6793 17.002C17.5076 17.002 18.2442 17.2043 18.8891 17.6089C19.534 18.0136 20.0414 18.5889 20.4112 19.335C20.7811 20.0811 20.966 20.9662 20.966 21.9905ZM19.828 21.9905C19.828 21.1496 19.6873 20.4399 19.4059 19.8614C19.1277 19.2829 18.75 18.845 18.2726 18.5478C17.7984 18.2507 17.2673 18.1021 16.6793 18.1021C16.0913 18.1021 15.5586 18.2507 15.0813 18.5478C14.6071 18.845 14.2293 19.2829 13.948 19.8614C13.6698 20.4399 13.5307 21.1496 13.5307 21.9905C13.5307 22.8314 13.6698 23.5411 13.948 24.1196C14.2293 24.6982 14.6071 25.136 15.0813 25.4332C15.5586 25.7303 16.0913 25.8789 16.6793 25.8789C17.2673 25.8789 17.7984 25.7303 18.2726 25.4332C18.75 25.136 19.1277 24.6982 19.4059 24.1196C19.6873 23.5411 19.828 22.8314 19.828 21.9905ZM27.3819 23.8683V19.5626H28.501V26.8463H27.3819V25.6133H27.306C27.1353 25.9832 26.8698 26.2978 26.5094 26.557C26.149 26.8131 25.6937 26.9411 25.1437 26.9411C24.6885 26.9411 24.2838 26.8415 23.9297 26.6423C23.5757 26.44 23.2975 26.1365 23.0952 25.7319C22.8928 25.3241 22.7917 24.8104 22.7917 24.1908V19.5626H23.9108V24.1149C23.9108 24.646 24.0594 25.0696 24.3565 25.3857C24.6568 25.7019 25.0394 25.8599 25.5041 25.8599C25.7823 25.8599 26.0652 25.7888 26.3529 25.6465C26.6437 25.5043 26.8871 25.2862 27.0831 24.9922C27.2823 24.6982 27.3819 24.3235 27.3819 23.8683ZM33.5097 26.998C32.8521 26.998 32.2752 26.8415 31.7789 26.5285C31.2857 26.2156 30.9 25.7777 30.6218 25.215C30.3468 24.6523 30.2093 23.9948 30.2093 23.2424C30.2093 22.4837 30.3468 21.8214 30.6218 21.2555C30.9 20.6896 31.2857 20.2502 31.7789 19.9372C32.2752 19.6243 32.8521 19.4678 33.5097 19.4678C34.1672 19.4678 34.7426 19.6243 35.2357 19.9372C35.7321 20.2502 36.1177 20.6896 36.3928 21.2555C36.671 21.8214 36.8101 22.4837 36.8101 23.2424C36.8101 23.9948 36.671 24.6523 36.3928 25.215C36.1177 25.7777 35.7321 26.2156 35.2357 26.5285C34.7426 26.8415 34.1672 26.998 33.5097 26.998ZM33.5097 25.9927C34.0091 25.9927 34.4201 25.8647 34.7426 25.6086C35.065 25.3525 35.3037 25.0159 35.4586 24.5986C35.6135 24.1813 35.691 23.7292 35.691 23.2424C35.691 22.7555 35.6135 22.3019 35.4586 21.8814C35.3037 21.461 35.065 21.1211 34.7426 20.8619C34.4201 20.6027 34.0091 20.4731 33.5097 20.4731C33.0102 20.4731 32.5992 20.6027 32.2768 20.8619C31.9543 21.1211 31.7156 21.461 31.5607 21.8814C31.4058 22.3019 31.3284 22.7555 31.3284 23.2424C31.3284 23.7292 31.4058 24.1813 31.5607 24.5986C31.7156 25.0159 31.9543 25.3525 32.2768 25.6086C32.5992 25.8647 33.0102 25.9927 33.5097 25.9927ZM41.686 19.5626V20.511H37.9114V19.5626H41.686ZM39.0115 17.8176H40.1306V24.7598C40.1306 25.0759 40.1764 25.313 40.2681 25.4711C40.363 25.626 40.4831 25.7303 40.6285 25.7841C40.7771 25.8346 40.9336 25.8599 41.098 25.8599C41.2212 25.8599 41.3224 25.8536 41.4014 25.841C41.4805 25.8252 41.5437 25.8125 41.5911 25.803L41.8187 26.8083C41.7429 26.8368 41.637 26.8652 41.501 26.8937C41.3651 26.9253 41.1928 26.9411 40.9842 26.9411C40.668 26.9411 40.3582 26.8731 40.0547 26.7372C39.7544 26.6013 39.5047 26.3942 39.3055 26.116C39.1095 25.8378 39.0115 25.4869 39.0115 25.0633V17.8176ZM46.3449 26.998C45.6431 26.998 45.0377 26.8431 44.5288 26.5333C44.0229 26.2203 43.6325 25.7841 43.3575 25.2245C43.0856 24.6618 42.9497 24.0074 42.9497 23.2613C42.9497 22.5153 43.0856 21.8577 43.3575 21.2887C43.6325 20.7165 44.015 20.2708 44.505 19.9515C44.9982 19.629 45.5736 19.4678 46.2311 19.4678C46.6105 19.4678 46.9851 19.531 47.355 19.6575C47.7248 19.7839 48.0615 19.9894 48.365 20.2739C48.6685 20.5553 48.9103 20.9283 49.0905 21.393C49.2707 21.8577 49.3608 22.4299 49.3608 23.1096V23.5838H43.7463V22.6164H48.2227C48.2227 22.2055 48.1405 21.8388 47.9761 21.5163C47.8149 21.1939 47.5841 20.9394 47.2838 20.7529C46.9867 20.5663 46.6358 20.4731 46.2311 20.4731C45.7854 20.4731 45.3997 20.5837 45.0741 20.805C44.7516 21.0231 44.5035 21.3077 44.3296 21.6586C44.1557 22.0095 44.0688 22.3857 44.0688 22.7871V23.4321C44.0688 23.9821 44.1636 24.4484 44.3533 24.8309C44.5461 25.2103 44.8133 25.4995 45.1547 25.6987C45.4961 25.8947 45.8929 25.9927 46.3449 25.9927C46.6389 25.9927 46.9045 25.9516 47.1416 25.8694C47.3818 25.7841 47.5889 25.6576 47.7628 25.4901C47.9366 25.3193 48.071 25.1075 48.1658 24.8546L49.247 25.1581C49.1332 25.5248 48.9419 25.8473 48.6732 26.1255C48.4045 26.4005 48.0726 26.6155 47.6774 26.7704C47.2822 26.9221 46.8381 26.998 46.3449 26.998ZM60.2815 19.5626C60.2246 19.0821 59.9938 18.7091 59.5892 18.4435C59.1845 18.178 58.6882 18.0452 58.1002 18.0452C57.6703 18.0452 57.2941 18.1148 56.9716 18.2538C56.6523 18.3929 56.4026 18.5842 56.2224 18.8276C56.0454 19.071 55.9568 19.3477 55.9568 19.6575C55.9568 19.9167 56.0185 20.1396 56.1418 20.3261C56.2682 20.5094 56.4295 20.6628 56.6255 20.786C56.8215 20.9062 57.0269 21.0058 57.2419 21.0848C57.4569 21.1607 57.6545 21.2223 57.8347 21.2697L58.821 21.5353C59.0739 21.6017 59.3552 21.6933 59.665 21.8103C59.978 21.9273 60.2768 22.0869 60.5613 22.2892C60.8489 22.4884 61.086 22.7445 61.2726 23.0574C61.4591 23.3704 61.5523 23.7545 61.5523 24.2097C61.5523 24.7345 61.4148 25.2087 61.1398 25.6323C60.8679 26.0559 60.4696 26.3926 59.9448 26.6423C59.4232 26.8921 58.7894 27.017 58.0433 27.017C57.3478 27.017 56.7456 26.9047 56.2366 26.6803C55.7308 26.4558 55.3325 26.1429 55.0416 25.7414C54.754 25.3399 54.5912 24.8736 54.5532 24.3425H55.7672C55.7988 24.7092 55.9221 25.0127 56.137 25.253C56.3552 25.4901 56.6302 25.6671 56.9621 25.7841C57.2972 25.8979 57.6576 25.9548 58.0433 25.9548C58.4922 25.9548 58.8953 25.8821 59.2525 25.7366C59.6097 25.5881 59.8927 25.3826 60.1013 25.1202C60.3099 24.8546 60.4143 24.5448 60.4143 24.1908C60.4143 23.8683 60.3242 23.6059 60.144 23.4036C59.9638 23.2013 59.7267 23.0369 59.4327 22.9104C59.1387 22.784 58.821 22.6733 58.4796 22.5785L57.2846 22.2371C56.5259 22.019 55.9252 21.7076 55.4826 21.3029C55.0401 20.8983 54.8188 20.3688 54.8188 19.7144C54.8188 19.1706 54.9658 18.6964 55.2598 18.2918C55.5569 17.884 55.9553 17.5678 56.4547 17.3434C56.9574 17.1158 57.5185 17.002 58.1381 17.002C58.7641 17.002 59.3205 17.1142 59.8073 17.3387C60.2941 17.5599 60.6798 17.8634 60.9643 18.2491C61.252 18.6348 61.4038 19.0726 61.4196 19.5626H60.2815ZM66.5017 19.5626V20.511H62.7272V19.5626H66.5017ZM63.8273 17.8176H64.9464V24.7598C64.9464 25.0759 64.9922 25.313 65.0839 25.4711C65.1787 25.626 65.2989 25.7303 65.4443 25.7841C65.5929 25.8346 65.7494 25.8599 65.9137 25.8599C66.037 25.8599 66.1382 25.8536 66.2172 25.841C66.2963 25.8252 66.3595 25.8125 66.4069 25.803L66.6345 26.8083C66.5586 26.8368 66.4527 26.8652 66.3168 26.8937C66.1809 26.9253 66.0086 26.9411 65.7999 26.9411C65.4838 26.9411 65.174 26.8731 64.8705 26.7372C64.5702 26.6013 64.3204 26.3942 64.1213 26.116C63.9253 25.8378 63.8273 25.4869 63.8273 25.0633V17.8176ZM72.7753 23.8683V19.5626H73.8944V26.8463H72.7753V25.6133H72.6995C72.5288 25.9832 72.2632 26.2978 71.9028 26.557C71.5424 26.8131 71.0872 26.9411 70.5371 26.9411C70.0819 26.9411 69.6773 26.8415 69.3232 26.6423C68.9691 26.44 68.6909 26.1365 68.4886 25.7319C68.2863 25.3241 68.1851 24.8104 68.1851 24.1908V19.5626H69.3042V24.1149C69.3042 24.646 69.4528 25.0696 69.75 25.3857C70.0503 25.7019 70.4328 25.8599 70.8975 25.8599C71.1757 25.8599 71.4587 25.7888 71.7463 25.6465C72.0372 25.5043 72.2806 25.2862 72.4766 24.9922C72.6758 24.6982 72.7753 24.3235 72.7753 23.8683ZM78.6945 26.998C78.0875 26.998 77.5517 26.8447 77.0869 26.538C76.6222 26.2282 76.2587 25.792 75.9963 25.2292C75.7339 24.6634 75.6027 23.9948 75.6027 23.2234C75.6027 22.4584 75.7339 21.7945 75.9963 21.2318C76.2587 20.6691 76.6238 20.2344 77.0917 19.9278C77.5596 19.6211 78.1001 19.4678 78.7134 19.4678C79.1876 19.4678 79.5622 19.5468 79.8373 19.7049C80.1155 19.8598 80.3273 20.0368 80.4727 20.236C80.6213 20.432 80.7367 20.5932 80.8189 20.7197H80.9137V17.1347H82.0328V26.8463H80.9516V25.7272H80.8189C80.7367 25.8599 80.6197 26.0275 80.468 26.2298C80.3162 26.429 80.0997 26.6076 79.8183 26.7656C79.5369 26.9205 79.1623 26.998 78.6945 26.998ZM78.8462 25.9927C79.2951 25.9927 79.6745 25.8757 79.9843 25.6418C80.2941 25.4047 80.5296 25.0775 80.6908 24.6602C80.852 24.2398 80.9327 23.7545 80.9327 23.2044C80.9327 22.6607 80.8536 22.1849 80.6956 21.7771C80.5375 21.3661 80.3036 21.0469 79.9938 20.8192C79.684 20.5885 79.3014 20.4731 78.8462 20.4731C78.372 20.4731 77.9768 20.5948 77.6607 20.8382C77.3478 21.0785 77.1122 21.4057 76.9542 21.8198C76.7993 22.2308 76.7218 22.6923 76.7218 23.2044C76.7218 23.7229 76.8008 24.1939 76.9589 24.6175C77.1201 25.038 77.3572 25.3731 77.6702 25.6228C77.9863 25.8694 78.3783 25.9927 78.8462 25.9927ZM84.2378 26.8463V19.5626H85.3569V26.8463H84.2378ZM84.8068 18.3487C84.5887 18.3487 84.4006 18.2744 84.2425 18.1258C84.0876 17.9772 84.0102 17.7986 84.0102 17.59C84.0102 17.3813 84.0876 17.2027 84.2425 17.0541C84.4006 16.9056 84.5887 16.8313 84.8068 16.8313C85.025 16.8313 85.2115 16.9056 85.3664 17.0541C85.5244 17.2027 85.6035 17.3813 85.6035 17.59C85.6035 17.7986 85.5244 17.9772 85.3664 18.1258C85.2115 18.2744 85.025 18.3487 84.8068 18.3487ZM90.3656 26.998C89.708 26.998 89.1311 26.8415 88.6348 26.5285C88.1416 26.2156 87.7559 25.7777 87.4777 25.215C87.2027 24.6523 87.0652 23.9948 87.0652 23.2424C87.0652 22.4837 87.2027 21.8214 87.4777 21.2555C87.7559 20.6896 88.1416 20.2502 88.6348 19.9372C89.1311 19.6243 89.708 19.4678 90.3656 19.4678C91.0231 19.4678 91.5985 19.6243 92.0916 19.9372C92.588 20.2502 92.9737 20.6896 93.2487 21.2555C93.5269 21.8214 93.666 22.4837 93.666 23.2424C93.666 23.9948 93.5269 24.6523 93.2487 25.215C92.9737 25.7777 92.588 26.2156 92.0916 26.5285C91.5985 26.8415 91.0231 26.998 90.3656 26.998ZM90.3656 25.9927C90.8651 25.9927 91.276 25.8647 91.5985 25.6086C91.9209 25.3525 92.1596 25.0159 92.3145 24.5986C92.4694 24.1813 92.5469 23.7292 92.5469 23.2424C92.5469 22.7555 92.4694 22.3019 92.3145 21.8814C92.1596 21.461 91.9209 21.1211 91.5985 20.8619C91.276 20.6027 90.8651 20.4731 90.3656 20.4731C89.8661 20.4731 89.4551 20.6027 89.1327 20.8619C88.8102 21.1211 88.5715 21.461 88.4166 21.8814C88.2617 22.3019 88.1843 22.7555 88.1843 23.2424C88.1843 23.7292 88.2617 24.1813 88.4166 24.5986C88.5715 25.0159 88.8102 25.3525 89.1327 25.6086C89.4551 25.8647 89.8661 25.9927 90.3656 25.9927Z" fill="white"/>
<path d="M16.3 23.8114V23.5749H15.822L16.112 23.9549L16.3 23.8114ZM17.5898 23.8114L17.778 23.6683L17.7071 23.5749H17.5898V23.8114ZM18.6709 25.234L18.8601 25.0921L18.8592 25.0909L18.6709 25.234ZM18.9554 25.6133L18.7663 25.7552L18.7665 25.7555L18.9554 25.6133ZM20.5677 27.7567V27.9932H21.0415L20.7567 27.6146L20.5677 27.7567ZM19.2779 27.7567L19.0884 27.8982L19.1593 27.9932H19.2779V27.7567ZM18.2157 26.3341L18.0253 26.4744L18.0262 26.4756L18.2157 26.3341ZM17.9502 25.9737L18.1406 25.8334L18.1381 25.8303L17.9502 25.9737ZM20.4112 24.646L20.1994 24.541L20.1994 24.541L20.4112 24.646ZM18.8891 26.3721L19.0147 26.5724L19.0147 26.5724L18.8891 26.3721ZM14.4696 26.3721L14.3439 26.5724L14.3439 26.5724L14.4696 26.3721ZM12.9474 24.646L13.1593 24.541L13.1593 24.541L12.9474 24.646ZM12.9474 19.335L12.7355 19.23L12.9474 19.335ZM18.8891 17.6089L19.0147 17.4086L19.0147 17.4086L18.8891 17.6089ZM20.4112 19.335L20.1994 19.44L20.1994 19.44L20.4112 19.335ZM19.4059 19.8614L19.1928 19.9638L19.1933 19.9648L19.4059 19.8614ZM18.2726 18.5478L18.147 18.7482L18.1476 18.7486L18.2726 18.5478ZM15.0813 18.5478L14.9563 18.3471L14.9557 18.3475L15.0813 18.5478ZM13.948 19.8614L13.7353 19.7579L13.7348 19.7589L13.948 19.8614ZM13.948 24.1196L13.7348 24.2221L13.7353 24.2231L13.948 24.1196ZM15.0813 25.4332L14.9557 25.6335L14.9563 25.6339L15.0813 25.4332ZM18.2726 25.4332L18.1476 25.2324L18.147 25.2328L18.2726 25.4332ZM19.4059 24.1196L19.1933 24.0162L19.1928 24.0172L19.4059 24.1196ZM16.3 24.0479H17.5898V23.5749H16.3V24.0479ZM17.4015 23.9545L18.4827 25.3771L18.8592 25.0909L17.778 23.6683L17.4015 23.9545ZM18.4818 25.3759L18.7663 25.7552L19.1446 25.4715L18.8601 25.0921L18.4818 25.3759ZM18.7665 25.7555L20.3787 27.8989L20.7567 27.6146L19.1444 25.4712L18.7665 25.7555ZM20.5677 27.5202H19.2779V27.9932H20.5677V27.5202ZM19.4674 27.6152L18.4052 26.1926L18.0262 26.4756L19.0884 27.8982L19.4674 27.6152ZM18.4061 26.1938L18.1405 25.8335L17.7598 26.114L18.0253 26.4744L18.4061 26.1938ZM18.1381 25.8303L16.4879 23.6679L16.112 23.9549L17.7622 26.1172L18.1381 25.8303ZM20.7296 21.9905C20.7296 22.9865 20.5497 23.8342 20.1994 24.541L20.6231 24.751C21.0124 23.9657 21.2025 23.043 21.2025 21.9905H20.7296ZM20.1994 24.541C19.847 25.2517 19.3679 25.7925 18.7634 26.1718L19.0147 26.5724C19.7 26.1424 20.2357 25.5324 20.6231 24.751L20.1994 24.541ZM18.7634 26.1718C18.1594 26.5507 17.4672 26.7426 16.6793 26.7426V27.2155C17.548 27.2155 18.3289 27.0027 19.0147 26.5724L18.7634 26.1718ZM16.6793 26.7426C15.8915 26.7426 15.1992 26.5507 14.5952 26.1718L14.3439 26.5724C15.0297 27.0027 15.8106 27.2155 16.6793 27.2155V26.7426ZM14.5952 26.1718C13.9907 25.7925 13.5116 25.2517 13.1593 24.541L12.7355 24.751C13.1229 25.5324 13.6586 26.1424 14.3439 26.5724L14.5952 26.1718ZM13.1593 24.541C12.8089 23.8342 12.6291 22.9865 12.6291 21.9905H12.1561C12.1561 23.043 12.3462 23.9657 12.7355 24.751L13.1593 24.541ZM12.6291 21.9905C12.6291 20.9945 12.8089 20.1468 13.1593 19.44L12.7355 19.23C12.3462 20.0153 12.1561 20.938 12.1561 21.9905H12.6291ZM13.1593 19.44C13.5116 18.7293 13.9907 18.1885 14.5952 17.8092L14.3439 17.4086C13.6586 17.8386 13.1229 18.4486 12.7355 19.23L13.1593 19.44ZM14.5952 17.8092C15.1992 17.4303 15.8915 17.2384 16.6793 17.2384V16.7655C15.8106 16.7655 15.0297 16.9783 14.3439 17.4086L14.5952 17.8092ZM16.6793 17.2384C17.4672 17.2384 18.1594 17.4303 18.7634 17.8092L19.0147 17.4086C18.3289 16.9783 17.548 16.7655 16.6793 16.7655V17.2384ZM18.7634 17.8092C19.3679 18.1885 19.847 18.7293 20.1994 19.44L20.6231 19.23C20.2357 18.4486 19.7 17.8386 19.0147 17.4086L18.7634 17.8092ZM20.1994 19.44C20.5497 20.1468 20.7296 20.9945 20.7296 21.9905H21.2025C21.2025 20.938 21.0124 20.0153 20.6231 19.23L20.1994 19.44ZM20.0644 21.9905C20.0644 21.1243 19.9197 20.377 19.6186 19.7579L19.1933 19.9648C19.4549 20.5028 19.5915 21.1749 19.5915 21.9905H20.0644ZM19.619 19.7589C19.3242 19.1458 18.9182 18.6712 18.3976 18.3471L18.1476 18.7486C18.5817 19.0188 18.9313 19.4199 19.1928 19.9638L19.619 19.7589ZM18.3982 18.3475C17.8844 18.0255 17.3094 17.8656 16.6793 17.8656V18.3386C17.2253 18.3386 17.7124 18.4759 18.147 18.7482L18.3982 18.3475ZM16.6793 17.8656C16.0493 17.8656 15.4729 18.0255 14.9563 18.3471L15.2062 18.7486C15.6443 18.4759 16.1334 18.3386 16.6793 18.3386V17.8656ZM14.9557 18.3475C14.4386 18.6715 14.0331 19.1457 13.7353 19.7579L14.1606 19.9648C14.4255 19.42 14.7755 19.0185 15.2068 18.7482L14.9557 18.3475ZM13.7348 19.7589C13.4373 20.3777 13.2942 21.1247 13.2942 21.9905H13.7671C13.7671 21.1745 13.9022 20.5021 14.1611 19.9638L13.7348 19.7589ZM13.2942 21.9905C13.2942 22.8563 13.4373 23.6033 13.7348 24.2221L14.1611 24.0172C13.9022 23.4789 13.7671 22.8065 13.7671 21.9905H13.2942ZM13.7353 24.2231C14.0331 24.8353 14.4386 25.3095 14.9557 25.6335L15.2068 25.2328C14.7755 24.9625 14.4255 24.561 14.1606 24.0162L13.7353 24.2231ZM14.9563 25.6339C15.4729 25.9555 16.0493 26.1154 16.6793 26.1154V25.6424C16.1334 25.6424 15.6443 25.5051 15.2062 25.2324L14.9563 25.6339ZM16.6793 26.1154C17.3094 26.1154 17.8844 25.9555 18.3982 25.6335L18.147 25.2328C17.7124 25.5051 17.2253 25.6424 16.6793 25.6424V26.1154ZM18.3976 25.6339C18.9182 25.3098 19.3242 24.8352 19.619 24.2221L19.1928 24.0172C18.9313 24.5611 18.5817 24.9622 18.1476 25.2324L18.3976 25.6339ZM19.6186 24.2231C19.9197 23.604 20.0644 22.8567 20.0644 21.9905H19.5915C19.5915 22.8061 19.4549 23.4782 19.1933 24.0162L19.6186 24.2231ZM27.3819 19.5626V19.3262H27.1454V19.5626H27.3819ZM28.501 19.5626H28.7375V19.3262H28.501V19.5626ZM28.501 26.8463V27.0827H28.7375V26.8463H28.501ZM27.3819 26.8463H27.1454V27.0827H27.3819V26.8463ZM27.3819 25.6133H27.6184V25.3769H27.3819V25.6133ZM27.306 25.6133V25.3769H27.1547L27.0913 25.5143L27.306 25.6133ZM26.5094 26.557L26.6463 26.7498L26.6474 26.749L26.5094 26.557ZM23.9297 26.6423L23.8124 26.8477L23.8138 26.8485L23.9297 26.6423ZM23.0952 25.7319L22.8833 25.837L22.8837 25.8376L23.0952 25.7319ZM22.7917 19.5626V19.3262H22.5552V19.5626H22.7917ZM23.9108 19.5626H24.1472V19.3262H23.9108V19.5626ZM24.3565 25.3857L24.1842 25.5477L24.1851 25.5486L24.3565 25.3857ZM26.3529 25.6465L26.249 25.4341L26.2481 25.4346L26.3529 25.6465ZM27.0831 24.9922L26.8874 24.8595L26.8864 24.861L27.0831 24.9922ZM27.6184 23.8683V19.5626H27.1454V23.8683H27.6184ZM27.3819 19.7991H28.501V19.3262H27.3819V19.7991ZM28.2645 19.5626V26.8463H28.7375V19.5626H28.2645ZM28.501 26.6098H27.3819V27.0827H28.501V26.6098ZM27.6184 26.8463V25.6133H27.1454V26.8463H27.6184ZM27.3819 25.3769H27.306V25.8498H27.3819V25.3769ZM27.0913 25.5143C26.9392 25.8438 26.7016 26.1274 26.3713 26.365L26.6474 26.749C27.0379 26.4681 27.3314 26.1226 27.5207 25.7124L27.0913 25.5143ZM26.3724 26.3642C26.0609 26.5856 25.6568 26.7046 25.1437 26.7046V27.1776C25.7307 27.1776 26.2371 27.0405 26.6463 26.7498L26.3724 26.3642ZM25.1437 26.7046C24.7241 26.7046 24.3602 26.6132 24.0457 26.4362L23.8138 26.8485C24.2074 27.0698 24.6528 27.1776 25.1437 27.1776V26.7046ZM24.0471 26.437C23.7379 26.2604 23.4905 25.9938 23.3067 25.6261L22.8837 25.8376C23.1045 26.2793 23.4134 26.6197 23.8124 26.8477L24.0471 26.437ZM23.307 25.6268C23.1256 25.2613 23.0281 24.7864 23.0281 24.1908H22.5552C22.5552 24.8344 22.66 25.3869 22.8833 25.837L23.307 25.6268ZM23.0281 24.1908V19.5626H22.5552V24.1908H23.0281ZM22.7917 19.7991H23.9108V19.3262H22.7917V19.7991ZM23.6743 19.5626V24.1149H24.1472V19.5626H23.6743ZM23.6743 24.1149C23.6743 24.692 23.837 25.1784 24.1842 25.5477L24.5288 25.2238C24.2817 24.9609 24.1472 24.6 24.1472 24.1149H23.6743ZM24.1851 25.5486C24.5332 25.9151 24.9793 26.0964 25.5041 26.0964V25.6235C25.0994 25.6235 24.7805 25.4887 24.528 25.2229L24.1851 25.5486ZM25.5041 26.0964C25.8238 26.0964 26.1424 26.0144 26.4577 25.8585L26.2481 25.4346C25.988 25.5632 25.7407 25.6235 25.5041 25.6235V26.0964ZM26.4568 25.859C26.7886 25.6967 27.0629 25.4489 27.2799 25.1233L26.8864 24.861C26.7114 25.1234 26.4988 25.3119 26.249 25.4341L26.4568 25.859ZM27.2789 25.1248C27.5112 24.7819 27.6184 24.3576 27.6184 23.8683H27.1454C27.1454 24.2895 27.0534 24.6144 26.8874 24.8595L27.2789 25.1248ZM31.7789 26.5285L31.6521 26.7282L31.6527 26.7286L31.7789 26.5285ZM30.6218 25.215L30.4094 25.3189L30.4098 25.3198L30.6218 25.215ZM30.6218 21.2555L30.4096 21.1512L30.4091 21.1521L30.6218 21.2555ZM31.7789 19.9372L31.6527 19.7372L31.6521 19.7376L31.7789 19.9372ZM35.2357 19.9372L35.109 20.1369L35.1096 20.1373L35.2357 19.9372ZM36.3928 21.2555L36.1801 21.3589L36.1806 21.3598L36.3928 21.2555ZM36.3928 25.215L36.1808 25.1102L36.1803 25.1112L36.3928 25.215ZM35.2357 26.5285L35.1096 26.3285L35.109 26.3289L35.2357 26.5285ZM34.7426 25.6086L34.5955 25.4234L34.5955 25.4234L34.7426 25.6086ZM35.4586 24.5986L35.6803 24.6809L35.6803 24.6809L35.4586 24.5986ZM35.4586 21.8814L35.6805 21.7997L35.6805 21.7997L35.4586 21.8814ZM34.7426 20.8619L34.8907 20.6776L34.8907 20.6776L34.7426 20.8619ZM32.2768 20.8619L32.1286 20.6776L32.1286 20.6776L32.2768 20.8619ZM31.5607 21.8814L31.3388 21.7997L31.3388 21.7997L31.5607 21.8814ZM31.5607 24.5986L31.339 24.6809L31.339 24.6809L31.5607 24.5986ZM32.2768 25.6086L32.4238 25.4234L32.4238 25.4234L32.2768 25.6086ZM33.5097 26.7615C32.8912 26.7615 32.3591 26.6149 31.905 26.3285L31.6527 26.7286C32.1912 27.0681 32.813 27.2345 33.5097 27.2345V26.7615ZM31.9056 26.3289C31.4517 26.0409 31.0943 25.6371 30.8338 25.1102L30.4098 25.3198C30.7057 25.9184 31.1197 26.3903 31.6521 26.7282L31.9056 26.3289ZM30.8343 25.1112C30.5779 24.5867 30.4457 23.9659 30.4457 23.2424H29.9728C29.9728 24.0236 30.1157 24.718 30.4094 25.3189L30.8343 25.1112ZM30.4457 23.2424C30.4457 22.5122 30.578 21.8866 30.8345 21.3589L30.4091 21.1521C30.1156 21.7562 29.9728 22.4551 29.9728 23.2424H30.4457ZM30.834 21.3598C31.0946 20.8298 31.452 20.4247 31.9056 20.1369L31.6521 19.7376C31.1193 20.0757 30.7054 20.5495 30.4096 21.1512L30.834 21.3598ZM31.905 20.1373C32.3591 19.8509 32.8912 19.7043 33.5097 19.7043V19.2313C32.813 19.2313 32.1912 19.3976 31.6527 19.7372L31.905 20.1373ZM33.5097 19.7043C34.1281 19.7043 34.6584 19.8509 35.109 20.1369L35.3624 19.7376C34.8268 19.3976 34.2063 19.2313 33.5097 19.2313V19.7043ZM35.1096 20.1373C35.5659 20.425 35.9229 20.8297 36.1801 21.3589L36.6054 21.1521C36.3126 20.5496 35.8982 20.0754 35.3619 19.7372L35.1096 20.1373ZM36.1806 21.3598C36.4399 21.8873 36.5736 22.5126 36.5736 23.2424H37.0465C37.0465 22.4548 36.902 21.7554 36.605 21.1512L36.1806 21.3598ZM36.5736 23.2424C36.5736 23.9656 36.44 24.5859 36.1808 25.1102L36.6047 25.3198C36.9019 24.7187 37.0465 24.024 37.0465 23.2424H36.5736ZM36.1803 25.1112C35.9232 25.6372 35.5662 26.0406 35.1096 26.3285L35.3619 26.7286C35.8979 26.3906 36.3123 25.9183 36.6052 25.3189L36.1803 25.1112ZM35.109 26.3289C34.6584 26.6149 34.1281 26.7615 33.5097 26.7615V27.2345C34.2063 27.2345 34.8268 27.0681 35.3624 26.7282L35.109 26.3289ZM33.5097 26.2292C34.0508 26.2292 34.517 26.0897 34.8896 25.7938L34.5955 25.4234C34.3232 25.6396 33.9675 25.7562 33.5097 25.7562V26.2292ZM34.8896 25.7938C35.2486 25.5087 35.5116 25.1352 35.6803 24.6809L35.2369 24.5163C35.0958 24.8965 34.8814 25.1964 34.5955 25.4234L34.8896 25.7938ZM35.6803 24.6809C35.8458 24.2349 35.9274 23.7547 35.9274 23.2424H35.4545C35.4545 23.7038 35.3812 24.1277 35.2369 24.5163L35.6803 24.6809ZM35.9274 23.2424C35.9274 22.7301 35.8458 22.2485 35.6805 21.7997L35.2367 21.9632C35.3812 22.3553 35.4545 22.781 35.4545 23.2424H35.9274ZM35.6805 21.7997C35.512 21.3425 35.2494 20.9659 34.8907 20.6776L34.5944 21.0462C34.8807 21.2764 35.0954 21.5795 35.2367 21.9632L35.6805 21.7997ZM34.8907 20.6776C34.5181 20.378 34.0515 20.2366 33.5097 20.2366V20.7095C33.9668 20.7095 34.3222 20.8274 34.5944 21.0462L34.8907 20.6776ZM33.5097 20.2366C32.9679 20.2366 32.5012 20.378 32.1286 20.6776L32.4249 21.0462C32.6972 20.8274 33.0525 20.7095 33.5097 20.7095V20.2366ZM32.1286 20.6776C31.77 20.9659 31.5073 21.3425 31.3388 21.7997L31.7826 21.9632C31.924 21.5795 32.1386 21.2764 32.4249 21.0462L32.1286 20.6776ZM31.3388 21.7997C31.1735 22.2485 31.0919 22.7301 31.0919 23.2424H31.5648C31.5648 22.781 31.6382 22.3553 31.7826 21.9632L31.3388 21.7997ZM31.0919 23.2424C31.0919 23.7547 31.1735 24.2349 31.339 24.6809L31.7824 24.5163C31.6382 24.1277 31.5648 23.7038 31.5648 23.2424H31.0919ZM31.339 24.6809C31.5077 25.1352 31.7707 25.5087 32.1297 25.7938L32.4238 25.4234C32.1379 25.1964 31.9236 24.8965 31.7824 24.5163L31.339 24.6809ZM32.1297 25.7938C32.5023 26.0897 32.9685 26.2292 33.5097 26.2292V25.7562C33.0518 25.7562 32.6961 25.6396 32.4238 25.4234L32.1297 25.7938ZM41.686 19.5626H41.9224V19.3262H41.686V19.5626ZM41.686 20.511V20.7475H41.9224V20.511H41.686ZM37.9114 20.511H37.6749V20.7475H37.9114V20.511ZM37.9114 19.5626V19.3262H37.6749V19.5626H37.9114ZM39.0115 17.8176V17.5811H38.775V17.8176H39.0115ZM40.1306 17.8176H40.3671V17.5811H40.1306V17.8176ZM40.2681 25.4711L40.0635 25.5898L40.0664 25.5946L40.2681 25.4711ZM40.6285 25.7841L40.5465 26.0059L40.5523 26.0079L40.6285 25.7841ZM41.4014 25.841L41.4388 26.0746L41.4478 26.0728L41.4014 25.841ZM41.5911 25.803L41.8218 25.7508L41.7708 25.5259L41.5447 25.5711L41.5911 25.803ZM41.8187 26.8083L41.9018 27.0297L42.0949 26.9573L42.0494 26.7561L41.8187 26.8083ZM41.501 26.8937L41.4526 26.6622L41.4475 26.6633L41.501 26.8937ZM40.0547 26.7372L39.9572 26.9526L39.9581 26.953L40.0547 26.7372ZM39.3055 26.116L39.1122 26.2522L39.1132 26.2536L39.3055 26.116ZM41.4495 19.5626V20.511H41.9224V19.5626H41.4495ZM41.686 20.2745H37.9114V20.7475H41.686V20.2745ZM38.1478 20.511V19.5626H37.6749V20.511H38.1478ZM37.9114 19.7991H41.686V19.3262H37.9114V19.7991ZM39.0115 18.0541H40.1306V17.5811H39.0115V18.0541ZM39.8941 17.8176V24.7598H40.3671V17.8176H39.8941ZM39.8941 24.7598C39.8941 25.091 39.9408 25.3781 40.0636 25.5897L40.4727 25.3524C40.4121 25.248 40.3671 25.0608 40.3671 24.7598H39.8941ZM40.0664 25.5946C40.1841 25.7867 40.3431 25.9307 40.5465 26.0059L40.7105 25.5622C40.6231 25.53 40.5419 25.4653 40.4698 25.3476L40.0664 25.5946ZM40.5523 26.0079C40.7266 26.0672 40.9089 26.0964 41.098 26.0964V25.6235C40.9583 25.6235 40.8276 25.602 40.7047 25.5602L40.5523 26.0079ZM41.098 26.0964C41.2278 26.0964 41.3427 26.0898 41.4388 26.0745L41.3641 25.6075C41.3021 25.6174 41.2147 25.6235 41.098 25.6235V26.0964ZM41.4478 26.0728C41.5269 26.057 41.5901 26.0444 41.6375 26.0349L41.5447 25.5711C41.4973 25.5806 41.4341 25.5933 41.3551 25.6091L41.4478 26.0728ZM41.3605 25.8552L41.5881 26.8605L42.0494 26.7561L41.8218 25.7508L41.3605 25.8552ZM41.7357 26.5869C41.6763 26.6092 41.5838 26.6348 41.4526 26.6622L41.5495 27.1251C41.6901 27.0957 41.8095 27.0643 41.9018 27.0297L41.7357 26.5869ZM41.4475 26.6633C41.3354 26.6894 41.1827 26.7046 40.9842 26.7046V27.1776C41.2029 27.1776 41.3948 27.1612 41.5546 27.124L41.4475 26.6633ZM40.9842 26.7046C40.7031 26.7046 40.4261 26.6444 40.1514 26.5214L39.9581 26.953C40.2903 27.1018 40.633 27.1776 40.9842 27.1776V26.7046ZM40.1522 26.5218C39.8913 26.4036 39.6737 26.2241 39.4978 25.9783L39.1132 26.2536C39.3356 26.5643 39.6176 26.7989 39.9572 26.9526L40.1522 26.5218ZM39.4988 25.9798C39.3371 25.7503 39.248 25.4502 39.248 25.0633H38.775C38.775 25.5236 38.8819 25.9253 39.1122 26.2522L39.4988 25.9798ZM39.248 25.0633V17.8176H38.775V25.0633H39.248ZM44.5288 26.5333L44.4043 26.7344L44.4058 26.7353L44.5288 26.5333ZM43.3575 25.2245L43.1446 25.3274L43.1453 25.3288L43.3575 25.2245ZM43.3575 21.2887L43.1444 21.1862L43.1441 21.1868L43.3575 21.2887ZM44.505 19.9515L44.6341 20.1496L44.6345 20.1494L44.505 19.9515ZM47.355 19.6575L47.4315 19.4337L47.4314 19.4337L47.355 19.6575ZM48.365 20.2739L48.2033 20.4464L48.2042 20.4473L48.365 20.2739ZM49.0905 21.393L49.311 21.3075L49.311 21.3075L49.0905 21.393ZM49.3608 23.5838V23.8203H49.5973V23.5838H49.3608ZM43.7463 23.5838H43.5099V23.8203H43.7463V23.5838ZM43.7463 22.6164V22.38H43.5099V22.6164H43.7463ZM48.2227 22.6164V22.8529H48.4592V22.6164H48.2227ZM47.9761 21.5163L47.7646 21.6221L47.7655 21.6237L47.9761 21.5163ZM47.2838 20.7529L47.1581 20.9531L47.1591 20.9537L47.2838 20.7529ZM45.0741 20.805L45.2066 21.0009L45.207 21.0006L45.0741 20.805ZM44.3296 21.6586L44.1177 21.5536L44.1177 21.5536L44.3296 21.6586ZM44.3533 24.8309L44.1414 24.936L44.1425 24.9381L44.3533 24.8309ZM45.1547 25.6987L45.0355 25.903L45.037 25.9038L45.1547 25.6987ZM47.1416 25.8694L47.219 26.0928L47.2207 26.0922L47.1416 25.8694ZM47.7628 25.4901L47.9269 25.6603L47.9284 25.6588L47.7628 25.4901ZM48.1658 24.8546L48.2297 24.627L48.0207 24.5683L47.9444 24.7716L48.1658 24.8546ZM49.247 25.1581L49.4728 25.2282L49.5449 24.9961L49.3109 24.9304L49.247 25.1581ZM48.6732 26.1255L48.8424 26.2907L48.8433 26.2898L48.6732 26.1255ZM47.6774 26.7704L47.7622 26.9911L47.7637 26.9905L47.6774 26.7704ZM46.3449 26.7615C45.6787 26.7615 45.1175 26.6148 44.6517 26.3313L44.4058 26.7353C44.958 27.0714 45.6075 27.2345 46.3449 27.2345V26.7615ZM44.6532 26.3322C44.187 26.0438 43.8261 25.6419 43.5697 25.1202L43.1453 25.3288C43.4389 25.9262 43.8589 26.3969 44.4043 26.7344L44.6532 26.3322ZM43.5704 25.1216C43.3168 24.5966 43.1862 23.9786 43.1862 23.2613H42.7132C42.7132 24.0362 42.8545 24.727 43.1446 25.3274L43.5704 25.1216ZM43.1862 23.2613C43.1862 22.5442 43.3167 21.9225 43.5709 21.3906L43.1441 21.1868C42.8545 21.7929 42.7132 22.4864 42.7132 23.2613H43.1862ZM43.5706 21.3911C43.8286 20.8545 44.1835 20.4433 44.6341 20.1496L44.3759 19.7533C43.8466 20.0983 43.4365 20.5785 43.1444 21.1863L43.5706 21.3911ZM44.6345 20.1494C45.0848 19.8549 45.614 19.7043 46.2311 19.7043V19.2313C45.5331 19.2313 44.9116 19.4031 44.3756 19.7535L44.6345 20.1494ZM46.2311 19.7043C46.5837 19.7043 46.9325 19.7629 47.2785 19.8812L47.4314 19.4337C47.0377 19.2991 46.6373 19.2313 46.2311 19.2313V19.7043ZM47.2785 19.8812C47.6146 19.9961 47.9226 20.1833 48.2033 20.4464L48.5267 20.1014C48.2004 19.7955 47.8351 19.5717 47.4315 19.4337L47.2785 19.8812ZM48.2042 20.4473C48.4765 20.6998 48.7002 21.0405 48.87 21.4785L49.311 21.3075C49.1204 20.8161 48.8604 20.4107 48.5258 20.1005L48.2042 20.4473ZM48.87 21.4785C49.0366 21.908 49.1243 22.4492 49.1243 23.1096H49.5973C49.5973 22.4106 49.5048 21.8074 49.311 21.3075L48.87 21.4785ZM49.1243 23.1096V23.5838H49.5973V23.1096H49.1243ZM49.3608 23.3473H43.7463V23.8203H49.3608V23.3473ZM43.9828 23.5838V22.6164H43.5099V23.5838H43.9828ZM43.7463 22.8529H48.2227V22.38H43.7463V22.8529ZM48.4592 22.6164C48.4592 22.1732 48.3703 21.7689 48.1868 21.4089L47.7655 21.6237C47.9107 21.9086 47.9863 22.2377 47.9863 22.6164H48.4592ZM48.1877 21.4106C48.0073 21.0498 47.7468 20.762 47.4086 20.552L47.1591 20.9537C47.4215 21.1167 47.6226 21.3379 47.7646 21.6221L48.1877 21.4106ZM47.4095 20.5526C47.0692 20.339 46.6733 20.2366 46.2311 20.2366V20.7095C46.5982 20.7095 46.9041 20.7937 47.1581 20.9531L47.4095 20.5526ZM46.2311 20.2366C45.7445 20.2366 45.311 20.3581 44.9412 20.6094L45.207 21.0006C45.4884 20.8094 45.8263 20.7095 46.2311 20.7095V20.2366ZM44.9416 20.6092C44.585 20.8503 44.3096 21.1663 44.1177 21.5536L44.5415 21.7636C44.6973 21.4491 44.9182 21.1959 45.2066 21.0009L44.9416 20.6092ZM44.1177 21.5536C43.9272 21.938 43.8323 22.3502 43.8323 22.7871H44.3053C44.3053 22.4211 44.3842 22.081 44.5415 21.7636L44.1177 21.5536ZM43.8323 22.7871V23.4321H44.3053V22.7871H43.8323ZM43.8323 23.4321C43.8323 24.0084 43.9316 24.5128 44.1414 24.936L44.5652 24.7259C44.3956 24.384 44.3053 23.9558 44.3053 23.4321H43.8323ZM44.1425 24.9381C44.3543 25.3547 44.6519 25.6791 45.0355 25.903L45.2738 25.4944C44.9747 25.3199 44.738 25.0659 44.5641 24.7238L44.1425 24.9381ZM45.037 25.9038C45.4192 26.1232 45.8578 26.2292 46.3449 26.2292V25.7562C45.928 25.7562 45.573 25.6662 45.2724 25.4936L45.037 25.9038ZM46.3449 26.2292C46.6609 26.2292 46.9532 26.185 47.219 26.0928L47.0641 25.646C46.8558 25.7182 46.617 25.7562 46.3449 25.7562V26.2292ZM47.2207 26.0922C47.4909 25.9963 47.7274 25.8525 47.9268 25.6603L47.5987 25.3198C47.4504 25.4627 47.2727 25.5719 47.0624 25.6466L47.2207 26.0922ZM47.9284 25.6588C48.1295 25.4614 48.2816 25.2193 48.3872 24.9377L47.9444 24.7716C47.8604 24.9958 47.7438 25.1773 47.5971 25.3213L47.9284 25.6588ZM48.1019 25.0823L49.1831 25.3858L49.3109 24.9304L48.2297 24.627L48.1019 25.0823ZM49.0211 25.088C48.9184 25.4191 48.7463 25.7094 48.5031 25.9612L48.8433 26.2898C49.1375 25.9852 49.348 25.6305 49.4728 25.2282L49.0211 25.088ZM48.5041 25.9602C48.2611 26.2089 47.9583 26.4063 47.5911 26.5502L47.7637 26.9905C48.1868 26.8247 48.5479 26.5921 48.8424 26.2907L48.5041 25.9602ZM47.5926 26.5496C47.2286 26.6894 46.8138 26.7615 46.3449 26.7615V27.2345C46.8624 27.2345 47.3359 27.1548 47.7622 26.9911L47.5926 26.5496ZM60.2815 19.5626L60.0467 19.5904L60.0714 19.7991H60.2815V19.5626ZM59.5892 18.4435L59.4594 18.6412L59.4594 18.6412L59.5892 18.4435ZM56.9716 18.2538L56.878 18.0367L56.8772 18.0371L56.9716 18.2538ZM56.2224 18.8276L56.0323 18.6869L56.0311 18.6885L56.2224 18.8276ZM56.1418 20.3261L55.9445 20.4565L55.9471 20.4603L56.1418 20.3261ZM56.6255 20.786L56.4995 20.9862L56.5019 20.9877L56.6255 20.786ZM57.2419 21.0848L57.1603 21.3068L57.1632 21.3078L57.2419 21.0848ZM57.8347 21.2697L57.8961 21.0414L57.8948 21.041L57.8347 21.2697ZM58.821 21.5353L58.7595 21.7636L58.7609 21.764L58.821 21.5353ZM59.665 21.8103L59.5815 22.0315L59.5823 22.0318L59.665 21.8103ZM60.5613 22.2892L60.4242 22.482L60.4267 22.4837L60.5613 22.2892ZM61.2726 23.0574L61.4757 22.9364L61.4757 22.9364L61.2726 23.0574ZM61.1398 25.6323L60.9414 25.5035L60.9408 25.5046L61.1398 25.6323ZM59.9448 26.6423L59.8432 26.4288L59.8427 26.4291L59.9448 26.6423ZM56.2366 26.6803L56.1407 26.8964L56.1412 26.8967L56.2366 26.6803ZM55.0416 25.7414L54.8494 25.8791L54.8501 25.8801L55.0416 25.7414ZM54.5532 24.3425V24.106H54.2993L54.3174 24.3594L54.5532 24.3425ZM55.7672 24.3425L56.0028 24.3222L55.9841 24.106H55.7672V24.3425ZM56.137 25.253L55.9608 25.4107L55.963 25.4131L56.137 25.253ZM56.9621 25.7841L56.8835 26.0071L56.8861 26.008L56.9621 25.7841ZM59.2525 25.7366L59.3417 25.9557L59.3433 25.955L59.2525 25.7366ZM60.1013 25.1202L60.2864 25.2674L60.2872 25.2663L60.1013 25.1202ZM60.144 23.4036L60.3206 23.2463L60.3206 23.2463L60.144 23.4036ZM59.4327 22.9104L59.3393 23.1277L59.3393 23.1277L59.4327 22.9104ZM58.4796 22.5785L58.4146 22.8059L58.4163 22.8063L58.4796 22.5785ZM57.2846 22.2371L57.2192 22.4643L57.2196 22.4645L57.2846 22.2371ZM55.4826 21.3029L55.3231 21.4774L55.3231 21.4774L55.4826 21.3029ZM55.2598 18.2918L55.0687 18.1525L55.0685 18.1528L55.2598 18.2918ZM56.4547 17.3434L56.5517 17.5591L56.5523 17.5588L56.4547 17.3434ZM59.8073 17.3387L59.7083 17.5534L59.7094 17.5539L59.8073 17.3387ZM60.9643 18.2491L60.774 18.3895L60.7748 18.3905L60.9643 18.2491ZM61.4196 19.5626V19.7991H61.6638L61.6559 19.555L61.4196 19.5626ZM60.5163 19.5348C60.4512 18.9849 60.1819 18.5497 59.7189 18.2458L59.4594 18.6412C59.8057 18.8685 59.998 19.1793 60.0467 19.5904L60.5163 19.5348ZM59.7189 18.2458C59.2681 17.95 58.7243 17.8087 58.1002 17.8087V18.2817C58.6521 18.2817 59.1009 18.406 59.4594 18.6412L59.7189 18.2458ZM58.1002 17.8087C57.6451 17.8087 57.2358 17.8823 56.878 18.0367L57.0653 18.471C57.3523 18.3472 57.6954 18.2817 58.1002 18.2817V17.8087ZM56.8772 18.0371C56.5257 18.1902 56.2407 18.4055 56.0323 18.6869L56.4125 18.9683C56.5645 18.7629 56.779 18.5957 57.0661 18.4706L56.8772 18.0371ZM56.0311 18.6885C55.8238 18.9736 55.7204 19.2992 55.7204 19.6575H56.1933C56.1933 19.3961 56.2669 19.1685 56.4136 18.9667L56.0311 18.6885ZM55.7204 19.6575C55.7204 19.9555 55.7918 20.2254 55.9445 20.4565L56.339 20.1957C56.2452 20.0537 56.1933 19.8779 56.1933 19.6575H55.7204ZM55.9471 20.4603C56.0925 20.6711 56.2775 20.8465 56.4995 20.9862L56.7514 20.5859C56.5814 20.479 56.444 20.3477 56.3364 20.1918L55.9471 20.4603ZM56.5019 20.9877C56.7111 21.1159 56.9307 21.2223 57.1603 21.3067L57.3235 20.8628C57.1232 20.7892 56.9318 20.6964 56.749 20.5844L56.5019 20.9877ZM57.1632 21.3078C57.383 21.3853 57.5868 21.449 57.7745 21.4984L57.8948 21.041C57.7221 20.9956 57.5308 20.936 57.3206 20.8618L57.1632 21.3078ZM57.7732 21.4981L58.7595 21.7636L58.8825 21.3069L57.8961 21.0414L57.7732 21.4981ZM58.7609 21.764C59.0041 21.8278 59.2775 21.9167 59.5815 22.0315L59.7486 21.5891C59.433 21.4699 59.1436 21.3755 58.881 21.3066L58.7609 21.764ZM59.5823 22.0318C59.8751 22.1413 60.1557 22.291 60.4242 22.482L60.6983 22.0965C60.3978 21.8828 60.0809 21.7133 59.7478 21.5888L59.5823 22.0318ZM60.4267 22.4837C60.6854 22.6628 60.8995 22.8934 61.0694 23.1785L61.4757 22.9364C61.2726 22.5956 61.0125 22.314 60.6959 22.0948L60.4267 22.4837ZM61.0694 23.1785C61.2293 23.4468 61.3159 23.7866 61.3159 24.2097H61.7888C61.7888 23.7224 61.6889 23.2941 61.4757 22.9364L61.0694 23.1785ZM61.3159 24.2097C61.3159 24.6907 61.1906 25.1198 60.9415 25.5035L61.3381 25.7611C61.639 25.2976 61.7888 24.7783 61.7888 24.2097H61.3159ZM60.9408 25.5046C60.6962 25.8856 60.3344 26.1951 59.8432 26.4288L60.0464 26.8559C60.6048 26.5902 61.0396 26.2262 61.3388 25.76L60.9408 25.5046ZM59.8427 26.4291C59.3608 26.6598 58.7639 26.7805 58.0433 26.7805V27.2534C58.8148 27.2534 59.4856 27.1244 60.0469 26.8556L59.8427 26.4291ZM58.0433 26.7805C57.3727 26.7805 56.8044 26.6722 56.332 26.4639L56.1412 26.8967C56.6868 27.1372 57.3229 27.2534 58.0433 27.2534V26.7805ZM56.3325 26.4641C55.8603 26.2546 55.4968 25.9665 55.2331 25.6027L54.8501 25.8801C55.1682 26.3192 55.6013 26.6571 56.1407 26.8964L56.3325 26.4641ZM55.2339 25.6036C54.9736 25.2404 54.8242 24.8167 54.7891 24.3257L54.3174 24.3594C54.3581 24.9305 54.5343 25.4394 54.8494 25.8791L55.2339 25.6036ZM54.5532 24.579H55.7672V24.106H54.5532V24.579ZM55.5316 24.3628C55.5669 24.773 55.707 25.1269 55.9608 25.4106L56.3133 25.0953C56.1372 24.8985 56.0306 24.6454 56.0028 24.3222L55.5316 24.3628ZM55.963 25.4131C56.2097 25.6812 56.5186 25.8785 56.8835 26.0071L57.0407 25.561C56.7418 25.4557 56.5006 25.2989 56.3111 25.0929L55.963 25.4131ZM56.8861 26.008C57.2478 26.1308 57.6341 26.1912 58.0433 26.1912V25.7183C57.6812 25.7183 57.3467 25.6649 57.0382 25.5601L56.8861 26.008ZM58.0433 26.1912C58.5178 26.1912 58.9519 26.1143 59.3417 25.9557L59.1633 25.5176C58.8387 25.6498 58.4666 25.7183 58.0433 25.7183V26.1912ZM59.3433 25.955C59.7317 25.7934 60.0492 25.5656 60.2864 25.2674L59.9162 24.973C59.7361 25.1995 59.4877 25.3827 59.1617 25.5183L59.3433 25.955ZM60.2872 25.2663C60.5303 24.957 60.6507 24.5951 60.6507 24.1908H60.1778C60.1778 24.4946 60.0896 24.7523 59.9154 24.9741L60.2872 25.2663ZM60.6507 24.1908C60.6507 23.8219 60.5464 23.4999 60.3206 23.2463L59.9674 23.5609C60.1019 23.7119 60.1778 23.9147 60.1778 24.1908H60.6507ZM60.3206 23.2463C60.1136 23.0139 59.8462 22.8309 59.5261 22.6932L59.3393 23.1277C59.6072 23.2429 59.814 23.3886 59.9674 23.5609L60.3206 23.2463ZM59.5261 22.6932C59.2213 22.5621 58.8935 22.4481 58.5428 22.3507L58.4163 22.8063C58.7485 22.8986 59.056 23.0058 59.3393 23.1277L59.5261 22.6932ZM58.5445 22.3511L57.3495 22.0097L57.2196 22.4645L58.4146 22.8059L58.5445 22.3511ZM57.3499 22.0098C56.6156 21.7987 56.0507 21.5019 55.6422 21.1284L55.3231 21.4774C55.7997 21.9132 56.4361 22.2392 57.2192 22.4643L57.3499 22.0098ZM55.6422 21.1284C55.2534 20.7729 55.0552 20.3091 55.0552 19.7144H54.5823C54.5823 20.4284 54.8267 21.0236 55.3231 21.4774L55.6422 21.1284ZM55.0552 19.7144C55.0552 19.216 55.189 18.7915 55.4511 18.4308L55.0685 18.1528C54.7425 18.6014 54.5823 19.1253 54.5823 19.7144H55.0552ZM55.4509 18.431C55.7218 18.0593 56.0864 17.7682 56.5517 17.5591L56.3578 17.1277C55.8241 17.3675 55.3921 17.7087 55.0687 18.1525L55.4509 18.431ZM56.5523 17.5588C57.0207 17.3467 57.548 17.2384 58.1381 17.2384V16.7655C57.489 16.7655 56.8941 16.8849 56.3572 17.128L56.5523 17.5588ZM58.1381 17.2384C58.7356 17.2384 59.2573 17.3455 59.7083 17.5534L59.9063 17.1239C59.3836 16.8829 58.7926 16.7655 58.1381 16.7655V17.2384ZM59.7094 17.5539C60.1639 17.7605 60.5161 18.0399 60.774 18.3895L61.1546 18.1087C60.8435 17.687 60.4244 17.3594 59.9052 17.1234L59.7094 17.5539ZM60.7748 18.3905C61.033 18.7366 61.1689 19.1276 61.1832 19.5702L61.6559 19.555C61.6386 19.0177 61.471 18.5329 61.1539 18.1077L60.7748 18.3905ZM61.4196 19.3262H60.2815V19.7991H61.4196V19.3262ZM66.5017 19.5626H66.7382V19.3262H66.5017V19.5626ZM66.5017 20.511V20.7475H66.7382V20.511H66.5017ZM62.7272 20.511H62.4907V20.7475H62.7272V20.511ZM62.7272 19.5626V19.3262H62.4907V19.5626H62.7272ZM63.8273 17.8176V17.5811H63.5908V17.8176H63.8273ZM64.9464 17.8176H65.1829V17.5811H64.9464V17.8176ZM65.0839 25.4711L64.8793 25.5898L64.8822 25.5946L65.0839 25.4711ZM65.4443 25.7841L65.3623 26.0059L65.3681 26.0079L65.4443 25.7841ZM66.2172 25.841L66.2546 26.0746L66.2636 26.0728L66.2172 25.841ZM66.4069 25.803L66.6375 25.7508L66.5866 25.5259L66.3605 25.5711L66.4069 25.803ZM66.6345 26.8083L66.7175 27.0297L66.9107 26.9573L66.8651 26.7561L66.6345 26.8083ZM66.3168 26.8937L66.2683 26.6622L66.2632 26.6633L66.3168 26.8937ZM64.8705 26.7372L64.773 26.9526L64.7738 26.953L64.8705 26.7372ZM64.1213 26.116L63.928 26.2522L63.929 26.2536L64.1213 26.116ZM66.2653 19.5626V20.511H66.7382V19.5626H66.2653ZM66.5017 20.2745H62.7272V20.7475H66.5017V20.2745ZM62.9636 20.511V19.5626H62.4907V20.511H62.9636ZM62.7272 19.7991H66.5017V19.3262H62.7272V19.7991ZM63.8273 18.0541H64.9464V17.5811H63.8273V18.0541ZM64.7099 17.8176V24.7598H65.1829V17.8176H64.7099ZM64.7099 24.7598C64.7099 25.091 64.7566 25.3781 64.8793 25.5897L65.2885 25.3524C65.2279 25.248 65.1829 25.0608 65.1829 24.7598H64.7099ZM64.8822 25.5946C64.9998 25.7867 65.1589 25.9307 65.3623 26.0059L65.5263 25.5622C65.4389 25.53 65.3576 25.4653 65.2856 25.3476L64.8822 25.5946ZM65.3681 26.0079C65.5423 26.0672 65.7247 26.0964 65.9137 26.0964V25.6235C65.774 25.6235 65.6434 25.602 65.5205 25.5602L65.3681 26.0079ZM65.9137 26.0964C66.0436 26.0964 66.1585 26.0898 66.2546 26.0745L66.1799 25.6075C66.1179 25.6174 66.0304 25.6235 65.9137 25.6235V26.0964ZM66.2636 26.0728C66.3426 26.057 66.4059 26.0444 66.4533 26.0349L66.3605 25.5711C66.3131 25.5806 66.2499 25.5933 66.1708 25.6091L66.2636 26.0728ZM66.1763 25.8552L66.4039 26.8605L66.8651 26.7561L66.6375 25.7508L66.1763 25.8552ZM66.5515 26.5869C66.492 26.6092 66.3996 26.6348 66.2684 26.6622L66.3652 27.1251C66.5059 27.0957 66.6253 27.0643 66.7175 27.0297L66.5515 26.5869ZM66.2632 26.6633C66.1512 26.6894 65.9985 26.7046 65.7999 26.7046V27.1776C66.0187 27.1776 66.2105 27.1612 66.3704 27.124L66.2632 26.6633ZM65.7999 26.7046C65.5188 26.7046 65.2419 26.6444 64.9672 26.5214L64.7738 26.953C65.1061 27.1018 65.4488 27.1776 65.7999 27.1776V26.7046ZM64.968 26.5218C64.707 26.4036 64.4895 26.2241 64.3136 25.9783L63.929 26.2536C64.1514 26.5643 64.4333 26.7989 64.773 26.9526L64.968 26.5218ZM64.3146 25.9798C64.1529 25.7503 64.0638 25.4502 64.0638 25.0633H63.5908C63.5908 25.5236 63.6977 25.9253 63.928 26.2522L64.3146 25.9798ZM64.0638 25.0633V17.8176H63.5908V25.0633H64.0638ZM72.7753 19.5626V19.3262H72.5389V19.5626H72.7753ZM73.8944 19.5626H74.1309V19.3262H73.8944V19.5626ZM73.8944 26.8463V27.0827H74.1309V26.8463H73.8944ZM72.7753 26.8463H72.5389V27.0827H72.7753V26.8463ZM72.7753 25.6133H73.0118V25.3769H72.7753V25.6133ZM72.6995 25.6133V25.3769H72.5482L72.4848 25.5143L72.6995 25.6133ZM71.9028 26.557L72.0398 26.7498L72.0409 26.749L71.9028 26.557ZM69.3232 26.6423L69.2059 26.8477L69.2073 26.8485L69.3232 26.6423ZM68.4886 25.7319L68.2768 25.837L68.2771 25.8376L68.4886 25.7319ZM68.1851 19.5626V19.3262H67.9487V19.5626H68.1851ZM69.3042 19.5626H69.5407V19.3262H69.3042V19.5626ZM69.75 25.3857L69.5777 25.5477L69.5785 25.5486L69.75 25.3857ZM71.7463 25.6465L71.6424 25.4341L71.6415 25.4346L71.7463 25.6465ZM72.4766 24.9922L72.2808 24.8595L72.2798 24.861L72.4766 24.9922ZM73.0118 23.8683V19.5626H72.5389V23.8683H73.0118ZM72.7753 19.7991H73.8944V19.3262H72.7753V19.7991ZM73.658 19.5626V26.8463H74.1309V19.5626H73.658ZM73.8944 26.6098H72.7753V27.0827H73.8944V26.6098ZM73.0118 26.8463V25.6133H72.5389V26.8463H73.0118ZM72.7753 25.3769H72.6995V25.8498H72.7753V25.3769ZM72.4848 25.5143C72.3327 25.8438 72.0951 26.1274 71.7647 26.365L72.0409 26.749C72.4314 26.4681 72.7248 26.1226 72.9142 25.7124L72.4848 25.5143ZM71.7658 26.3642C71.4543 26.5856 71.0502 26.7046 70.5371 26.7046V27.1776C71.1242 27.1776 71.6305 27.0405 72.0398 26.7498L71.7658 26.3642ZM70.5371 26.7046C70.1175 26.7046 69.7537 26.6132 69.4391 26.4362L69.2073 26.8485C69.6008 27.0698 70.0463 27.1776 70.5371 27.1776V26.7046ZM69.4405 26.437C69.1314 26.2604 68.8839 25.9938 68.7001 25.6261L68.2771 25.8376C68.4979 26.2793 68.8069 26.6197 69.2059 26.8477L69.4405 26.437ZM68.7004 25.6268C68.5191 25.2613 68.4216 24.7864 68.4216 24.1908H67.9487C67.9487 24.8344 68.0535 25.3869 68.2768 25.837L68.7004 25.6268ZM68.4216 24.1908V19.5626H67.9487V24.1908H68.4216ZM68.1851 19.7991H69.3042V19.3262H68.1851V19.7991ZM69.0678 19.5626V24.1149H69.5407V19.5626H69.0678ZM69.0678 24.1149C69.0678 24.692 69.2305 25.1784 69.5777 25.5477L69.9223 25.2238C69.6751 24.9609 69.5407 24.6 69.5407 24.1149H69.0678ZM69.5785 25.5486C69.9267 25.9151 70.3728 26.0964 70.8975 26.0964V25.6235C70.4929 25.6235 70.1739 25.4887 69.9214 25.2229L69.5785 25.5486ZM70.8975 26.0964C71.2173 26.0964 71.5359 26.0144 71.8512 25.8585L71.6415 25.4346C71.3814 25.5632 71.1342 25.6235 70.8975 25.6235V26.0964ZM71.8502 25.859C72.1821 25.6967 72.4563 25.4489 72.6733 25.1233L72.2798 24.861C72.1049 25.1234 71.8923 25.3119 71.6424 25.4341L71.8502 25.859ZM72.6724 25.1248C72.9046 24.7819 73.0118 24.3576 73.0118 23.8683H72.5389C72.5389 24.2895 72.4469 24.6144 72.2808 24.8595L72.6724 25.1248ZM77.0869 26.538L76.9558 26.7348L76.9567 26.7354L77.0869 26.538ZM75.9963 25.2292L75.7818 25.3287L75.782 25.3292L75.9963 25.2292ZM75.9963 21.2318L75.782 21.1319L75.782 21.1319L75.9963 21.2318ZM77.0917 19.9278L76.9621 19.73L76.9621 19.73L77.0917 19.9278ZM79.8373 19.7049L79.7194 19.9099L79.7222 19.9115L79.8373 19.7049ZM80.4727 20.236L80.2817 20.3754L80.2842 20.3788L80.4727 20.236ZM80.8189 20.7197L80.6206 20.8485L80.6905 20.9561H80.8189V20.7197ZM80.9137 20.7197V20.9561H81.1502V20.7197H80.9137ZM80.9137 17.1347V16.8983H80.6772V17.1347H80.9137ZM82.0328 17.1347H82.2693V16.8983H82.0328V17.1347ZM82.0328 26.8463V27.0827H82.2693V26.8463H82.0328ZM80.9516 26.8463H80.7152V27.0827H80.9516V26.8463ZM80.9516 25.7272H81.1881V25.4907H80.9516V25.7272ZM80.8189 25.7272V25.4907H80.6871L80.6178 25.6027L80.8189 25.7272ZM80.468 26.2298L80.6561 26.3731L80.6571 26.3717L80.468 26.2298ZM79.8183 26.7656L79.9324 26.9728L79.9341 26.9718L79.8183 26.7656ZM79.9843 25.6418L80.1268 25.8305L80.128 25.8296L79.9843 25.6418ZM80.6908 24.6602L80.9114 24.7454L80.9116 24.7449L80.6908 24.6602ZM80.6956 21.7771L80.4749 21.862L80.4751 21.8626L80.6956 21.7771ZM79.9938 20.8192L79.8525 21.0089L79.8537 21.0098L79.9938 20.8192ZM77.6607 20.8382L77.8047 21.0258L77.805 21.0256L77.6607 20.8382ZM76.9542 21.8198L76.7332 21.7355L76.7329 21.7364L76.9542 21.8198ZM76.9589 24.6175L76.7374 24.7002L76.7381 24.7022L76.9589 24.6175ZM77.6702 25.6228L77.5227 25.8077L77.5248 25.8093L77.6702 25.6228ZM78.6945 26.7615C78.1294 26.7615 77.6398 26.6195 77.2172 26.3407L76.9567 26.7354C77.4635 27.0698 78.0455 27.2345 78.6945 27.2345V26.7615ZM77.2181 26.3413C76.7934 26.0581 76.4568 25.6573 76.2106 25.1293L75.782 25.3292C76.0606 25.9267 76.4511 26.3983 76.9558 26.7348L77.2181 26.3413ZM76.2108 25.1298C75.9659 24.6015 75.8392 23.9683 75.8392 23.2234H75.3662C75.3662 24.0212 75.5019 24.7252 75.7818 25.3287L76.2108 25.1298ZM75.8392 23.2234C75.8392 22.4851 75.9658 21.8567 76.2106 21.3317L75.782 21.1319C75.502 21.7323 75.3662 22.4317 75.3662 23.2234H75.8392ZM76.2106 21.3317C76.4565 20.8044 76.7942 20.4055 77.2213 20.1255L76.9621 19.73C76.4535 20.0633 76.0608 20.5338 75.782 21.1319L76.2106 21.3317ZM77.2213 20.1255C77.647 19.8465 78.1416 19.7043 78.7134 19.7043V19.2313C78.0587 19.2313 77.4721 19.3957 76.9621 19.73L77.2213 20.1255ZM78.7134 19.7043C79.1652 19.7043 79.4937 19.7802 79.7194 19.9099L79.9551 19.4999C79.6307 19.3134 79.21 19.2313 78.7134 19.2313V19.7043ZM79.7222 19.9115C79.9789 20.0544 80.1614 20.2107 80.2817 20.3754L80.6637 20.0965C80.4931 19.863 80.252 19.6652 79.9523 19.4983L79.7222 19.9115ZM80.2842 20.3788C80.4312 20.5727 80.5428 20.7289 80.6206 20.8485L81.0171 20.5908C80.9305 20.4575 80.8113 20.2912 80.6611 20.0931L80.2842 20.3788ZM80.8189 20.9561H80.9137V20.4832H80.8189V20.9561ZM81.1502 20.7197V17.1347H80.6772V20.7197H81.1502ZM80.9137 17.3712H82.0328V16.8983H80.9137V17.3712ZM81.7963 17.1347V26.8463H82.2693V17.1347H81.7963ZM82.0328 26.6098H80.9516V27.0827H82.0328V26.6098ZM81.1881 26.8463V25.7272H80.7152V26.8463H81.1881ZM80.9516 25.4907H80.8189V25.9636H80.9516V25.4907ZM80.6178 25.6027C80.5408 25.727 80.4285 25.8882 80.2788 26.0879L80.6571 26.3717C80.8109 26.1667 80.9325 25.9929 81.0199 25.8516L80.6178 25.6027ZM80.2799 26.0865C80.1524 26.2537 79.9635 26.4128 79.7025 26.5595L79.9341 26.9718C80.2358 26.8023 80.48 26.6042 80.656 26.3731L80.2799 26.0865ZM79.7043 26.5585C79.4702 26.6874 79.1394 26.7615 78.6945 26.7615V27.2345C79.1852 27.2345 79.6037 27.1537 79.9324 26.9728L79.7043 26.5585ZM78.8462 26.2292C79.3382 26.2292 79.7697 26.1001 80.1268 25.8305L79.8418 25.4531C79.5792 25.6513 79.2521 25.7562 78.8462 25.7562V26.2292ZM80.128 25.8296C80.4772 25.5623 80.7368 25.1973 80.9114 24.7454L80.4702 24.575C80.3224 24.9577 80.111 25.2471 79.8406 25.454L80.128 25.8296ZM80.9116 24.7449C81.0852 24.2922 81.1691 23.7772 81.1691 23.2044H80.6962C80.6962 23.7318 80.6189 24.1874 80.47 24.5756L80.9116 24.7449ZM81.1691 23.2044C81.1691 22.6383 81.0869 22.1324 80.9161 21.6917L80.4751 21.8626C80.6204 22.2374 80.6962 22.6831 80.6962 23.2044H81.1691ZM80.9163 21.6922C80.7444 21.2453 80.4851 20.8868 80.1338 20.6287L79.8537 21.0098C80.122 21.2069 80.3306 21.487 80.4749 21.862L80.9163 21.6922ZM80.135 20.6296C79.7775 20.3633 79.343 20.2366 78.8462 20.2366V20.7095C79.2599 20.7095 79.5904 20.8137 79.8525 21.0089L80.135 20.6296ZM78.8462 20.2366C78.33 20.2366 77.8813 20.3699 77.5165 20.6508L77.805 21.0256C78.0724 20.8197 78.414 20.7095 78.8462 20.7095V20.2366ZM77.5167 20.6506C77.1649 20.9207 76.9049 21.2857 76.7332 21.7355L77.1751 21.9041C77.3195 21.5257 77.5306 21.2362 77.8047 21.0258L77.5167 20.6506ZM76.7329 21.7364C76.5664 22.178 76.4853 22.6685 76.4853 23.2044H76.9583C76.9583 22.7162 77.0321 22.2835 77.1754 21.9032L76.7329 21.7364ZM76.4853 23.2044C76.4853 23.747 76.5681 24.2466 76.7374 24.7002L77.1805 24.5349C77.0336 24.1413 76.9583 23.6988 76.9583 23.2044H76.4853ZM76.7381 24.7022C76.9125 25.157 77.1729 25.5285 77.5227 25.8077L77.8177 25.438C77.5416 25.2177 77.3278 24.919 77.1797 24.5329L76.7381 24.7022ZM77.5248 25.8093C77.8891 26.0935 78.3348 26.2292 78.8462 26.2292V25.7562C78.4219 25.7562 78.0835 25.6453 77.8156 25.4364L77.5248 25.8093ZM84.2378 26.8463H84.0013V27.0827H84.2378V26.8463ZM84.2378 19.5626V19.3262H84.0013V19.5626H84.2378ZM85.3569 19.5626H85.5934V19.3262H85.3569V19.5626ZM85.3569 26.8463V27.0827H85.5934V26.8463H85.3569ZM84.2425 18.1258L84.0788 18.2965L84.0806 18.2981L84.2425 18.1258ZM84.2425 17.0541L84.0806 16.8818L84.0789 16.8835L84.2425 17.0541ZM85.3664 17.0541L85.2027 17.2248L85.2044 17.2264L85.3664 17.0541ZM85.3664 18.1258L85.2044 17.9535L85.2027 17.9552L85.3664 18.1258ZM84.4743 26.8463V19.5626H84.0013V26.8463H84.4743ZM84.2378 19.7991H85.3569V19.3262H84.2378V19.7991ZM85.1204 19.5626V26.8463H85.5934V19.5626H85.1204ZM85.3569 26.6098H84.2378V27.0827H85.3569V26.6098ZM84.8068 18.1122C84.6485 18.1122 84.5184 18.0606 84.4045 17.9535L84.0806 18.2981C84.2828 18.4882 84.5289 18.5852 84.8068 18.5852V18.1122ZM84.4062 17.9552C84.2963 17.8497 84.2467 17.7321 84.2467 17.59H83.7737C83.7737 17.8651 83.879 18.1047 84.0789 18.2965L84.4062 17.9552ZM84.2467 17.59C84.2467 17.4478 84.2963 17.3302 84.4062 17.2248L84.0789 16.8835C83.879 17.0752 83.7737 17.3149 83.7737 17.59H84.2467ZM84.4045 17.2264C84.5184 17.1193 84.6485 17.0677 84.8068 17.0677V16.5948C84.5289 16.5948 84.2828 16.6918 84.0806 16.8818L84.4045 17.2264ZM84.8068 17.0677C84.9651 17.0677 85.0926 17.1192 85.2027 17.2248L85.5301 16.8835C85.3303 16.6919 85.0849 16.5948 84.8068 16.5948V17.0677ZM85.2044 17.2264C85.3171 17.3323 85.367 17.4494 85.367 17.59H85.8399C85.8399 17.3132 85.7318 17.0731 85.5283 16.8818L85.2044 17.2264ZM85.367 17.59C85.367 17.7305 85.3171 17.8476 85.2044 17.9535L85.5283 18.2981C85.7318 18.1068 85.8399 17.8667 85.8399 17.59H85.367ZM85.2027 17.9552C85.0926 18.0607 84.9651 18.1122 84.8068 18.1122V18.5852C85.0849 18.5852 85.3303 18.488 85.5301 18.2965L85.2027 17.9552ZM88.6348 26.5285L88.5081 26.7282L88.5086 26.7286L88.6348 26.5285ZM87.4777 25.215L87.2653 25.3189L87.2658 25.3198L87.4777 25.215ZM87.4777 21.2555L87.2655 21.1512L87.2651 21.1521L87.4777 21.2555ZM88.6348 19.9372L88.5086 19.7372L88.5081 19.7376L88.6348 19.9372ZM92.0916 19.9372L91.9649 20.1369L91.9655 20.1373L92.0916 19.9372ZM93.2487 21.2555L93.036 21.3589L93.0365 21.3598L93.2487 21.2555ZM93.2487 25.215L93.0367 25.1102L93.0362 25.1112L93.2487 25.215ZM92.0916 26.5285L91.9655 26.3285L91.9649 26.3289L92.0916 26.5285ZM91.5985 25.6086L91.4514 25.4234L91.4514 25.4234L91.5985 25.6086ZM92.3145 24.5986L92.5362 24.6809L92.5362 24.6809L92.3145 24.5986ZM92.3145 21.8814L92.5364 21.7997L92.5364 21.7997L92.3145 21.8814ZM91.5985 20.8619L91.7466 20.6776L91.7466 20.6776L91.5985 20.8619ZM89.1327 20.8619L88.9845 20.6776L88.9845 20.6776L89.1327 20.8619ZM88.4166 21.8814L88.1948 21.7997L88.1948 21.7997L88.4166 21.8814ZM88.4166 24.5986L88.195 24.6809L88.195 24.6809L88.4166 24.5986ZM89.1327 25.6086L89.2797 25.4234L89.2797 25.4234L89.1327 25.6086ZM90.3656 26.7615C89.7471 26.7615 89.215 26.6149 88.7609 26.3285L88.5086 26.7286C89.0472 27.0681 89.6689 27.2345 90.3656 27.2345V26.7615ZM88.7615 26.3289C88.3076 26.0409 87.9502 25.6371 87.6897 25.1102L87.2658 25.3198C87.5617 25.9184 87.9756 26.3903 88.5081 26.7282L88.7615 26.3289ZM87.6902 25.1112C87.4338 24.5867 87.3017 23.9659 87.3017 23.2424H86.8287C86.8287 24.0236 86.9716 24.718 87.2653 25.3189L87.6902 25.1112ZM87.3017 23.2424C87.3017 22.5122 87.4339 21.8866 87.6904 21.3589L87.2651 21.1521C86.9715 21.7562 86.8287 22.4551 86.8287 23.2424H87.3017ZM87.6899 21.3598C87.9505 20.8298 88.308 20.4247 88.7615 20.1369L88.5081 19.7376C87.9753 20.0757 87.5613 20.5495 87.2655 21.1512L87.6899 21.3598ZM88.7609 20.1373C89.215 19.8509 89.7471 19.7043 90.3656 19.7043V19.2313C89.6689 19.2313 89.0472 19.3976 88.5086 19.7372L88.7609 20.1373ZM90.3656 19.7043C90.9841 19.7043 91.5143 19.8509 91.9649 20.1369L92.2184 19.7376C91.6827 19.3976 91.0622 19.2313 90.3656 19.2313V19.7043ZM91.9655 20.1373C92.4218 20.425 92.7788 20.8297 93.036 21.3589L93.4614 21.1521C93.1685 20.5496 92.7541 20.0754 92.2178 19.7372L91.9655 20.1373ZM93.0365 21.3598C93.2958 21.8873 93.4295 22.5126 93.4295 23.2424H93.9024C93.9024 22.4548 93.758 21.7554 93.4609 21.1512L93.0365 21.3598ZM93.4295 23.2424C93.4295 23.9656 93.2959 24.5859 93.0367 25.1102L93.4607 25.3198C93.7579 24.7187 93.9024 24.024 93.9024 23.2424H93.4295ZM93.0362 25.1112C92.7791 25.6372 92.4222 26.0406 91.9655 26.3285L92.2178 26.7286C92.7538 26.3906 93.1682 25.9183 93.4611 25.3189L93.0362 25.1112ZM91.9649 26.3289C91.5143 26.6149 90.9841 26.7615 90.3656 26.7615V27.2345C91.0622 27.2345 91.6827 27.0681 92.2184 26.7282L91.9649 26.3289ZM90.3656 26.2292C90.9067 26.2292 91.3729 26.0897 91.7455 25.7938L91.4514 25.4234C91.1792 25.6396 90.8234 25.7562 90.3656 25.7562V26.2292ZM91.7455 25.7938C92.1045 25.5087 92.3675 25.1352 92.5362 24.6809L92.0928 24.5163C91.9517 24.8965 91.7374 25.1964 91.4514 25.4234L91.7455 25.7938ZM92.5362 24.6809C92.7018 24.2349 92.7833 23.7547 92.7833 23.2424H92.3104C92.3104 23.7038 92.2371 24.1277 92.0928 24.5163L92.5362 24.6809ZM92.7833 23.2424C92.7833 22.7301 92.7018 22.2485 92.5364 21.7997L92.0926 21.9632C92.2371 22.3553 92.3104 22.781 92.3104 23.2424H92.7833ZM92.5364 21.7997C92.368 21.3425 92.1053 20.9659 91.7466 20.6776L91.4503 21.0462C91.7366 21.2764 91.9513 21.5795 92.0926 21.9632L92.5364 21.7997ZM91.7466 20.6776C91.374 20.378 90.9074 20.2366 90.3656 20.2366V20.7095C90.8227 20.7095 91.1781 20.8274 91.4503 21.0462L91.7466 20.6776ZM90.3656 20.2366C89.8238 20.2366 89.3572 20.378 88.9845 20.6776L89.2808 21.0462C89.5531 20.8274 89.9084 20.7095 90.3656 20.7095V20.2366ZM88.9845 20.6776C88.6259 20.9659 88.3632 21.3425 88.1948 21.7997L88.6385 21.9632C88.7799 21.5795 88.9946 21.2764 89.2808 21.0462L88.9845 20.6776ZM88.1948 21.7997C88.0294 22.2485 87.9478 22.7301 87.9478 23.2424H88.4208C88.4208 22.781 88.4941 22.3553 88.6385 21.9632L88.1948 21.7997ZM87.9478 23.2424C87.9478 23.7547 88.0294 24.2349 88.195 24.6809L88.6383 24.5163C88.4941 24.1277 88.4208 23.7038 88.4208 23.2424H87.9478ZM88.195 24.6809C88.3636 25.1352 88.6266 25.5087 88.9856 25.7938L89.2797 25.4234C88.9938 25.1964 88.7795 24.8965 88.6383 24.5163L88.195 24.6809ZM88.9856 25.7938C89.3582 26.0897 89.8244 26.2292 90.3656 26.2292V25.7562C89.9078 25.7562 89.552 25.6396 89.2797 25.4234L88.9856 25.7938Z" fill="white"/>
<path d="M15.6086 13.8054C15.569 13.8744 14.6081 13.9578 14.5201 13.4499C14.4327 12.9456 15.0272 12.3636 14.9032 11.5618C14.7733 10.7219 13.909 9.66683 13.0838 9.3783C11.2804 8.74782 9.89535 9.64474 9.38733 9.97542C8.95625 10.256 7.23863 12.1863 7.24319 13.1698C7.24953 14.5406 8.06885 16.164 9.0881 16.3776C10.1315 16.5961 9.89035 17.2951 8.84263 17.2146C6.24967 17.0154 5.53159 13.7008 6.84242 11.417C8.15324 9.13316 11.1255 7.88999 13.481 8.64031C15.8366 9.39062 16.9194 11.5215 15.6086 13.8054Z" fill="white" stroke="white" stroke-width="0.517642"/>
<path d="M2.91038 18.2079C2.95384 18.1322 3.93111 18.0163 3.9957 18.5632C4.12703 19.6752 3.55224 22.036 5.15877 22.6028C6.95484 23.2364 8.49626 22.5549 9.02676 22.1836C9.47691 21.8686 11.3055 20.3827 10.7237 19.6032C10.0261 18.6684 8.36148 17.709 7.84457 17.1536C6.3768 15.5767 6.80458 15.6089 7.7555 15.9118C10.1051 16.6603 13.1118 18.0512 11.6739 20.5564C10.2361 23.0616 7.16567 24.4857 4.81602 23.7373C2.46638 22.9888 1.47251 20.7131 2.91038 18.2079Z" fill="white" stroke="white" stroke-width="0.541462"/>
<path d="M13.3872 6.99817C3.48582 24.2492 3.44029 24.3285 3.44029 24.3285Z" fill="white"/>
<path d="M13.3872 6.99817C3.48582 24.2492 3.44029 24.3285 3.44029 24.3285" stroke="white" stroke-width="1.10949"/>
<path d="M15.1464 7.60437C5.24503 24.8554 5.19951 24.9347 5.19951 24.9347Z" fill="white"/>
<path d="M15.1464 7.60437C5.24503 24.8554 5.19951 24.9347 5.19951 24.9347" stroke="white" stroke-width="1.10949"/>
<path d="M2.55519 21.3497C2.85268 21.3262 3.10844 21.4326 3.35369 21.5943C3.91243 21.9627 4.51831 22.2869 5.13099 22.5454C5.55916 22.7261 5.93912 23.0441 6.36737 23.2248C6.51989 23.2892 7.40837 23.6099 7.37193 23.6868C7.29491 23.8493 6.34815 24.3769 6.13555 24.5564C5.29007 25.27 4.13716 26.2345 3.2249 26.8119C3.14938 26.8597 2.3255 27.4936 2.29761 27.4641C2.20932 27.371 2.34913 26.8702 2.34913 26.7576C2.34913 25.5514 2.36514 24.3641 2.45217 23.1705C2.49701 22.5554 2.44086 21.9527 2.55519 21.3497Z" fill="white" stroke="white" stroke-width="0.695494"/>
<path d="M21.4864 2.59264L28.9512 7.27836C29.5224 7.6369 29.7234 8.42424 29.4002 9.03693L27.682 12.2935C27.3587 12.9062 26.6336 13.1122 26.0624 12.7537L18.5976 8.06797C18.0264 7.70943 17.8254 6.92209 18.1486 6.3094L19.8668 3.05283C20.1901 2.44013 20.9152 2.2341 21.4864 2.59264Z" fill="white" stroke="white" stroke-width="0.417563"/>
<path d="M11.8183 6.6467L17.6988 9.91765C17.799 9.97334 17.8226 10.094 17.7517 10.187C17.6808 10.2801 17.5421 10.3104 17.442 10.2547L11.5614 6.98378C11.4613 6.92809 11.4376 6.80748 11.5085 6.71439C11.5795 6.62131 11.7181 6.591 11.8183 6.6467Z" stroke="white" stroke-width="0.707425"/>
<path d="M14.5983 8.06508L18.4644 1.35716C18.5781 1.15991 18.8463 1.02292 19.0635 1.05119C19.2807 1.07946 19.3646 1.26229 19.2509 1.45955L15.3847 8.16746C15.271 8.36472 15.0028 8.50171 14.7856 8.47344C14.5684 8.44516 14.4846 8.26234 14.5983 8.06508Z" stroke="white" stroke-width="1.03655"/>
<path d="M29.3861 7.84682C18.9916 1.02545 18.9916 1.02545 18.9916 1.02545" stroke="white" stroke-width="0.857566" stroke-linecap="round"/>
<path d="M2.78699 18.5778L7.21735 10.7513" stroke="white" stroke-width="0.472936" stroke-linecap="round"/>
<path d="M10.9041 21.9168L15.7914 13.4996" stroke="white" stroke-width="0.432795" stroke-linecap="round"/>
<path d="M4.42035 24.0372L0.535583 30.4019Z" fill="white"/>
<path d="M4.42035 24.0372L0.535583 30.4019" stroke="white" stroke-width="1.02933" stroke-linecap="round"/>
<path d="M0.657227 30.3175C0.657227 30.3175 7.76797 37.7484 24.1621 36.1315C34.2617 35.1354 42.6657 31.7772 64.6122 31.4379C82.5669 31.1603 91.5415 36.6653 91.5415 36.6653" stroke="white" stroke-width="1.02933" stroke-linecap="round"/>
</svg>
