<svg width="110" height="38" viewBox="0 0 110 38" fill="none" xmlns="http://www.w3.org/2000/svg">
<path d="M21.2877 29.3552C20.9228 29.3552 20.629 29.2795 20.4064 29.1282C20.1839 28.9857 20.0147 28.8032 19.899 28.5807C19.7922 28.367 19.6809 28.0866 19.5652 27.7394C19.1646 27.8641 18.7506 27.9264 18.3233 27.9264C17.5755 27.9264 16.988 27.7127 16.5607 27.2854C16.1423 26.8581 15.9331 26.1771 15.9331 25.2424C15.9331 24.4501 16.0755 23.5598 16.3604 22.5717C16.6452 21.5835 17.0592 20.7378 17.6022 20.0346C18.1542 19.3313 18.804 18.9796 19.5518 18.9796C19.8189 18.9796 20.0503 19.0153 20.2462 19.0865C19.8545 19.3179 19.4761 19.7942 19.1112 20.5153C18.7551 21.2364 18.4657 22.042 18.2432 22.9322C18.0206 23.8225 17.9094 24.6103 17.9094 25.2958V25.5361C17.9094 25.6875 17.9183 25.7987 17.9361 25.87C18.2565 25.7898 18.5325 25.7498 18.764 25.7498C19.1646 25.7498 19.5207 25.87 19.8322 26.1103C20.2862 25.5228 20.6735 24.726 20.994 23.7201C21.3144 22.7052 21.4747 21.726 21.4747 20.7823C21.4747 20.2304 21.4257 19.7898 21.3278 19.4604C21.2388 19.1221 21.0696 18.8684 20.8204 18.6992C20.5711 18.5301 20.2195 18.4455 19.7655 18.4455C19.08 18.4455 18.4435 18.588 17.8559 18.8728C17.2684 19.1488 16.7966 19.5494 16.4405 20.0746C16.0933 20.591 15.9197 21.1918 15.9197 21.8773C15.9197 22.1177 15.942 22.2957 15.9865 22.4115C16.031 22.5183 16.0532 22.5806 16.0532 22.5984C15.6081 22.5984 15.2698 22.5094 15.0384 22.3313C14.8158 22.1533 14.7046 21.8684 14.7046 21.4767C14.7046 20.8625 14.9538 20.2749 15.4523 19.7141C15.9598 19.1532 16.6274 18.6992 17.4553 18.352C18.2921 18.0049 19.169 17.8313 20.0859 17.8313C21.1987 17.8313 22.0044 18.1339 22.5029 18.7393C23.0014 19.3446 23.2507 20.1814 23.2507 21.2497C23.2507 21.9085 23.1572 22.6162 22.9703 23.3729C22.7833 24.1207 22.4984 24.8329 22.1156 25.5094C21.7329 26.186 21.261 26.7335 20.7002 27.1519C20.9317 27.4991 21.172 27.7661 21.4213 27.9531C21.6705 28.14 21.9866 28.2335 22.3694 28.2335C22.4228 28.2335 22.5207 28.2246 22.6631 28.2068C22.494 28.643 22.2981 28.9412 22.0756 29.1015C21.8619 29.2706 21.5993 29.3552 21.2877 29.3552ZM18.6838 26.8448C18.8797 26.8448 19.0488 26.7958 19.1913 26.6979C19.0132 26.3952 18.7595 26.2439 18.4301 26.2439C18.2877 26.2439 18.1586 26.2617 18.0429 26.2973C18.1675 26.6623 18.3812 26.8448 18.6838 26.8448ZM24.6934 27.9264C24.2661 27.9264 23.9189 27.7928 23.6518 27.5258C23.3936 27.2587 23.2646 26.8581 23.2646 26.324C23.2646 26.1014 23.3002 25.8121 23.3714 25.456L24.2794 21.1696H26.2023L25.2408 25.7097C25.2141 25.8433 25.2008 25.9679 25.2008 26.0836C25.2008 26.4486 25.3343 26.6311 25.6014 26.6311C25.8506 26.6311 26.0643 26.5287 26.2423 26.324C26.4204 26.1103 26.5628 25.821 26.6697 25.456L27.5777 21.1696H29.5006L28.5391 25.7097C28.5035 25.8433 28.4857 25.9857 28.4857 26.137C28.4857 26.3151 28.5258 26.4442 28.6059 26.5243C28.6949 26.5955 28.8373 26.6311 29.0332 26.6311C29.2825 26.6311 29.4961 26.5243 29.6741 26.3106C29.8611 26.097 30.008 25.8121 30.1148 25.456H30.6756C30.3463 26.4174 29.9368 27.0718 29.4471 27.4189C28.9664 27.7572 28.4813 27.9264 27.9916 27.9264C27.6088 27.9264 27.3017 27.8195 27.0703 27.6059C26.8477 27.3922 26.7142 27.0762 26.6697 26.6578C26.367 27.1474 26.0465 27.4813 25.7082 27.6593C25.3788 27.8374 25.0405 27.9264 24.6934 27.9264ZM32.0628 27.8997C31.4041 27.8997 30.8833 27.7305 30.5005 27.3922C30.1177 27.054 29.9263 26.5198 29.9263 25.7898C29.9263 25.1845 30.0509 24.5124 30.3002 23.7735C30.5494 23.0346 30.95 22.3981 31.502 21.864C32.0539 21.3209 32.7483 21.0494 33.5851 21.0494C34.7246 21.0494 35.2943 21.7616 35.2943 23.1859V23.1993C35.321 23.2082 35.37 23.2127 35.4412 23.2127C35.735 23.2127 36.0733 23.137 36.4561 22.9856C36.8389 22.8254 37.186 22.634 37.4976 22.4115L37.6178 22.772C37.3596 23.048 37.0214 23.2839 36.603 23.4797C36.1935 23.6667 35.7439 23.8002 35.2543 23.8803C35.1831 24.6904 35.0006 25.3981 34.7068 26.0035C34.413 26.6088 34.0347 27.0762 33.5718 27.4056C33.1088 27.735 32.6059 27.8997 32.0628 27.8997ZM32.597 26.6979C32.8106 26.6979 33.0243 26.5777 33.2379 26.3373C33.4516 26.0881 33.6385 25.7542 33.7988 25.3358C33.959 24.9085 34.0747 24.4367 34.1459 23.9204C33.9056 23.867 33.7854 23.68 33.7854 23.3595C33.7854 22.9945 33.9234 22.7542 34.1994 22.6385C34.1816 22.3447 34.137 22.1444 34.0658 22.0376C33.9946 21.9218 33.87 21.864 33.6919 21.864C33.3982 21.864 33.1133 22.0776 32.8373 22.5049C32.5613 22.9322 32.3388 23.4441 32.1697 24.0406C32.0005 24.637 31.9159 25.1622 31.9159 25.6162C31.9159 26.0436 31.9649 26.3329 32.0628 26.4842C32.1607 26.6266 32.3388 26.6979 32.597 26.6979ZM37.3034 27.9264C36.8761 27.9264 36.5289 27.7928 36.2618 27.5258C36.0037 27.2587 35.8746 26.8581 35.8746 26.324C35.8746 26.1014 35.9102 25.8121 35.9814 25.456L36.7826 21.7037H36.3419L36.4488 21.1696H36.8894L37.29 19.3268L39.2663 19.0598L38.8123 21.1696H39.6135L39.5067 21.7037H38.7055L37.8509 25.7097C37.8153 25.8433 37.7974 25.9857 37.7974 26.137C37.7974 26.3151 37.8375 26.4442 37.9176 26.5243C38.0067 26.5955 38.1491 26.6311 38.3449 26.6311C38.6031 26.6311 38.8435 26.5243 39.066 26.3106C39.2886 26.0881 39.4488 25.8032 39.5467 25.456H40.1076C39.7782 26.4174 39.3553 27.0718 38.839 27.4189C38.3227 27.7572 37.8108 27.9264 37.3034 27.9264ZM41.4242 27.9264C40.7744 27.9264 40.2669 27.7572 39.902 27.4189C39.537 27.0718 39.3545 26.5332 39.3545 25.8032C39.3545 25.1889 39.4746 24.5124 39.715 23.7735C39.9554 23.0346 40.3471 22.3981 40.8901 21.864C41.4331 21.3209 42.1231 21.0494 42.9599 21.0494C43.9391 21.0494 44.4287 21.4767 44.4287 22.3313C44.4287 22.8299 44.2863 23.2883 44.0014 23.7067C43.7165 24.1251 43.3382 24.4634 42.8664 24.7216C42.3946 24.9708 41.8916 25.1133 41.3575 25.1489C41.3397 25.3447 41.3308 25.4783 41.3308 25.5495C41.3308 26.2884 41.6067 26.6578 42.1587 26.6578C42.4079 26.6578 42.675 26.591 42.9599 26.4575C43.2447 26.324 43.5029 26.1548 43.7344 25.9501C43.494 27.2676 42.724 27.9264 41.4242 27.9264ZM41.4509 24.5079C41.7892 24.499 42.1052 24.3877 42.399 24.1741C42.7017 23.9604 42.9421 23.6889 43.1201 23.3595C43.307 23.0213 43.4005 22.6696 43.4005 22.3046C43.4005 21.9396 43.2892 21.7571 43.0667 21.7571C42.7551 21.7571 42.4435 22.042 42.132 22.6118C41.8293 23.1726 41.6023 23.8046 41.4509 24.5079ZM50.5981 28.0866C50.0372 28.0866 49.5432 27.9887 49.1158 27.7928C48.6885 27.597 48.3592 27.3255 48.1277 26.9783C47.8962 26.6222 47.7805 26.2127 47.7805 25.7498C47.7805 25.3581 47.8606 25.002 48.0209 24.6815C48.19 24.361 48.4126 24.1073 48.6885 23.9204C48.9734 23.7334 49.285 23.64 49.6233 23.64C49.9348 23.64 50.1975 23.7201 50.4111 23.8803C50.6248 24.0317 50.7583 24.2453 50.8117 24.5213C50.3488 24.5213 49.9794 24.6459 49.7034 24.8952C49.4274 25.1355 49.2894 25.4649 49.2894 25.8833C49.2894 26.2661 49.4052 26.5732 49.6366 26.8047C49.8681 27.0362 50.1752 27.1519 50.558 27.1519C51.0298 27.1519 51.4171 26.9961 51.7197 26.6845C52.0313 26.364 52.1871 25.9634 52.1871 25.4827C52.1871 25.0643 52.0714 24.6682 51.8399 24.2943C51.6085 23.9204 51.2613 23.4664 50.7984 22.9322C50.3176 22.3803 49.9527 21.9085 49.7034 21.5168C49.463 21.1162 49.3429 20.68 49.3429 20.2082C49.3429 19.7452 49.4719 19.3313 49.7301 18.9663C49.9883 18.5924 50.3443 18.2986 50.7984 18.085C51.2524 17.8713 51.7643 17.7645 52.334 17.7645C53.0551 17.7645 53.6293 17.9336 54.0566 18.2719C54.4928 18.6102 54.7109 19.0642 54.7109 19.634C54.7109 20.0079 54.6174 20.3105 54.4305 20.542C54.2435 20.7734 53.9987 20.8892 53.696 20.8892C53.3577 20.8892 53.0862 20.7512 52.8815 20.4752C53.0506 20.3506 53.1842 20.1859 53.2821 19.9811C53.38 19.7764 53.429 19.5627 53.429 19.3402C53.429 19.0553 53.3444 18.8283 53.1753 18.6592C53.0061 18.49 52.7747 18.4055 52.4809 18.4055C52.1248 18.4055 51.831 18.5345 51.5996 18.7927C51.377 19.042 51.2657 19.3624 51.2657 19.7541C51.2657 20.1102 51.3681 20.4441 51.5729 20.7556C51.7776 21.0583 52.0981 21.45 52.5343 21.9307C52.8904 22.3135 53.1753 22.6429 53.3889 22.9189C53.6115 23.1948 53.7984 23.5153 53.9497 23.8803C54.11 24.2364 54.1901 24.6237 54.1901 25.0421C54.1901 25.6118 54.0299 26.1281 53.7094 26.591C53.3978 27.054 52.9661 27.4189 52.4141 27.686C51.8711 27.9531 51.2657 28.0866 50.5981 28.0866ZM56.264 27.9264C55.8367 27.9264 55.4895 27.7928 55.2225 27.5258C54.9643 27.2587 54.8352 26.8581 54.8352 26.324C54.8352 26.1014 54.8708 25.8121 54.9421 25.456L55.7433 21.7037H55.3026L55.4094 21.1696H55.8501L56.2507 19.3268L58.227 19.0598L57.773 21.1696H58.5742L58.4673 21.7037H57.6661L56.8115 25.7097C56.7759 25.8433 56.7581 25.9857 56.7581 26.137C56.7581 26.3151 56.7982 26.4442 56.8783 26.5243C56.9673 26.5955 57.1098 26.6311 57.3056 26.6311C57.5638 26.6311 57.8041 26.5243 58.0267 26.3106C58.2492 26.0881 58.4095 25.8032 58.5074 25.456H59.0682C58.7389 26.4174 58.316 27.0718 57.7997 27.4189C57.2833 27.7572 56.7715 27.9264 56.264 27.9264ZM59.8241 27.9264C59.3968 27.9264 59.0496 27.7928 58.7825 27.5258C58.5243 27.2587 58.3953 26.8581 58.3953 26.324C58.3953 26.1014 58.4309 25.8121 58.5021 25.456L59.4101 21.1696H61.333L60.3715 25.7097C60.3448 25.8433 60.3315 25.9679 60.3315 26.0836C60.3315 26.4486 60.465 26.6311 60.7321 26.6311C60.9813 26.6311 61.195 26.5287 61.373 26.324C61.5511 26.1103 61.6935 25.821 61.8003 25.456L62.7084 21.1696H64.6313L63.6698 25.7097C63.6342 25.8433 63.6164 25.9857 63.6164 26.137C63.6164 26.3151 63.6565 26.4442 63.7366 26.5243C63.8256 26.5955 63.968 26.6311 64.1639 26.6311C64.4131 26.6311 64.6268 26.5243 64.8048 26.3106C64.9918 26.097 65.1387 25.8121 65.2455 25.456H65.8063C65.477 26.4174 65.0675 27.0718 64.5778 27.4189C64.0971 27.7572 63.6119 27.9264 63.1223 27.9264C62.7395 27.9264 62.4324 27.8195 62.2009 27.6059C61.9784 27.3922 61.8449 27.0762 61.8003 26.6578C61.4977 27.1474 61.1772 27.4813 60.8389 27.6593C60.5095 27.8374 60.1712 27.9264 59.8241 27.9264ZM66.8463 27.9264C66.3389 27.9264 65.9161 27.7528 65.5778 27.4056C65.2395 27.0584 65.0703 26.5154 65.0703 25.7765C65.0703 25.1177 65.1994 24.4278 65.4576 23.7067C65.7247 22.9767 66.1164 22.3625 66.6327 21.864C67.1579 21.3565 67.7811 21.1028 68.5021 21.1028C68.8671 21.1028 69.1387 21.1651 69.3167 21.2898C69.4947 21.4144 69.5838 21.5791 69.5838 21.7838V21.8373L70.2381 18.766L72.2144 18.4989L70.6787 25.7097C70.6431 25.8433 70.6253 25.9857 70.6253 26.137C70.6253 26.3151 70.6654 26.4442 70.7455 26.5243C70.8345 26.5955 70.977 26.6311 71.1728 26.6311C71.4221 26.6311 71.6357 26.5243 71.8138 26.3106C72.0007 26.097 72.1476 25.8121 72.2544 25.456H72.8153C72.2722 27.0495 71.3776 27.8463 70.1313 27.8463C69.7663 27.8463 69.468 27.7483 69.2366 27.5525C69.014 27.3566 68.876 27.0718 68.8226 26.6979C68.5912 27.054 68.3108 27.3477 67.9814 27.5792C67.6609 27.8106 67.2825 27.9264 66.8463 27.9264ZM67.7143 26.6311C67.928 26.6311 68.1416 26.5332 68.3553 26.3373C68.5778 26.1415 68.7292 25.87 68.8093 25.5228V25.456L69.4636 22.3981C69.3835 22.0865 69.201 21.9307 68.9161 21.9307C68.56 21.9307 68.2395 22.1399 67.9547 22.5583C67.6698 22.9678 67.4472 23.4664 67.287 24.0539C67.1268 24.6326 67.0466 25.1444 67.0466 25.5895C67.0466 26.0347 67.109 26.3195 67.2336 26.4442C67.3671 26.5688 67.5274 26.6311 67.7143 26.6311ZM74.4897 20.4485C74.1959 20.4485 73.9466 20.3461 73.7419 20.1414C73.5371 19.9366 73.4347 19.6874 73.4347 19.3936C73.4347 19.0998 73.5371 18.8506 73.7419 18.6458C73.9466 18.4322 74.1959 18.3253 74.4897 18.3253C74.7834 18.3253 75.0327 18.4322 75.2374 18.6458C75.4511 18.8506 75.5579 19.0998 75.5579 19.3936C75.5579 19.6874 75.4511 19.9366 75.2374 20.1414C75.0327 20.3461 74.7834 20.4485 74.4897 20.4485ZM73.5816 27.9264C73.1543 27.9264 72.8071 27.7928 72.5401 27.5258C72.2819 27.2587 72.1528 26.8581 72.1528 26.324C72.1528 26.1014 72.1884 25.8121 72.2596 25.456L73.1677 21.1696H75.0906L74.1291 25.7097C74.0935 25.8433 74.0757 25.9857 74.0757 26.137C74.0757 26.3151 74.1158 26.4442 74.1959 26.5243C74.2849 26.5955 74.4273 26.6311 74.6232 26.6311C74.8813 26.6311 75.1217 26.5243 75.3443 26.3106C75.5668 26.0881 75.7271 25.8032 75.825 25.456H76.3858C76.0564 26.4174 75.6336 27.0718 75.1173 27.4189C74.6009 27.7572 74.0891 27.9264 73.5816 27.9264ZM77.7692 27.8997C77.1105 27.8997 76.5897 27.7305 76.2069 27.3922C75.8241 27.054 75.6327 26.5198 75.6327 25.7898C75.6327 25.1756 75.7529 24.5035 75.9933 23.7735C76.2336 23.0346 76.6253 22.3981 77.1683 21.864C77.7114 21.3209 78.4058 21.0494 79.2515 21.0494C80.3019 21.0494 80.8672 21.6503 80.9473 22.8521C81.1432 22.8076 81.3168 22.7008 81.4681 22.5316C81.6195 22.3536 81.7619 22.1533 81.8954 21.9307H82.3227C82.0824 22.4115 81.8687 22.7898 81.6818 23.0658C81.4948 23.3328 81.25 23.5509 80.9473 23.7201C80.8939 24.5569 80.7203 25.2913 80.4266 25.9234C80.1417 26.5554 79.7678 27.0451 79.3049 27.3922C78.842 27.7305 78.3301 27.8997 77.7692 27.8997ZM78.3034 26.6979C78.6328 26.6979 78.9399 26.4308 79.2248 25.8967C79.5096 25.3625 79.7055 24.7038 79.8123 23.9204C79.5987 23.8403 79.4918 23.64 79.4918 23.3195C79.4918 22.9723 79.6165 22.7408 79.8657 22.6251C79.8479 22.3402 79.799 22.1444 79.7188 22.0376C79.6476 21.9218 79.5274 21.864 79.3583 21.864C79.0645 21.864 78.7841 22.0776 78.517 22.5049C78.25 22.9233 78.0319 23.4352 77.8627 24.0406C77.7025 24.637 77.6224 25.1622 77.6224 25.6162C77.6224 26.0436 77.6713 26.3329 77.7692 26.4842C77.8672 26.6266 78.0452 26.6979 78.3034 26.6979Z" fill="white"/>
<path d="M20.4064 29.1282L20.5394 28.9326L20.5339 28.929L20.4064 29.1282ZM19.899 28.5807L19.6875 28.6865L19.6892 28.6898L19.899 28.5807ZM19.5652 27.7394L19.7895 27.6646L19.7162 27.4448L19.4949 27.5136L19.5652 27.7394ZM16.5607 27.2854L16.3917 27.4509L16.3935 27.4526L16.5607 27.2854ZM16.3604 22.5717L16.5876 22.6372L16.3604 22.5717ZM17.6022 20.0346L17.4162 19.8886L17.4151 19.89L17.6022 20.0346ZM20.2462 19.0865L20.3665 19.2901L20.7975 19.0353L20.327 18.8642L20.2462 19.0865ZM19.1112 20.5153L18.9002 20.4085L18.8991 20.4106L19.1112 20.5153ZM18.2432 22.9322L18.0138 22.8749L18.0138 22.8749L18.2432 22.9322ZM17.9361 25.87L17.7067 25.9273L17.764 26.1567L17.9934 26.0994L17.9361 25.87ZM19.8322 26.1103L19.6878 26.2976L19.8749 26.4419L20.0193 26.2549L19.8322 26.1103ZM20.994 23.7201L21.2193 23.7919L21.2195 23.7913L20.994 23.7201ZM21.3278 19.4604L21.099 19.5206L21.1011 19.5278L21.3278 19.4604ZM20.8204 18.6992L20.9532 18.5036L20.9532 18.5036L20.8204 18.6992ZM17.8559 18.8728L17.9565 19.0869L17.9591 19.0856L17.8559 18.8728ZM16.4405 20.0746L16.2448 19.9419L16.2443 19.9427L16.4405 20.0746ZM15.9865 22.4115L15.7657 22.4964L15.7682 22.5024L15.9865 22.4115ZM16.0532 22.5984V22.8349H16.2897V22.5984H16.0532ZM15.0384 22.3313L14.8906 22.516L14.8942 22.5188L15.0384 22.3313ZM15.4523 19.7141L15.277 19.5554L15.2756 19.557L15.4523 19.7141ZM17.4553 18.352L17.3647 18.1336L17.3639 18.134L17.4553 18.352ZM22.9703 23.3729L23.1997 23.4302L23.1998 23.4296L22.9703 23.3729ZM22.1156 25.5094L22.3215 25.6259L22.3215 25.6259L22.1156 25.5094ZM20.7002 27.1519L20.5588 26.9623L20.379 27.0964L20.5034 27.2831L20.7002 27.1519ZM21.4213 27.9531L21.5632 27.7639L21.5632 27.7639L21.4213 27.9531ZM22.6631 28.2068L22.8836 28.2923L23.0268 27.923L22.6338 27.9721L22.6631 28.2068ZM22.0756 29.1015L21.9373 28.9094L21.9288 28.9161L22.0756 29.1015ZM19.1913 26.6979L19.3252 26.8927L19.5068 26.7679L19.3951 26.578L19.1913 26.6979ZM18.0429 26.2973L17.9733 26.0713L17.7403 26.143L17.8191 26.3737L18.0429 26.2973ZM21.2877 29.1187C20.9537 29.1187 20.711 29.0493 20.5394 28.9326L20.2735 29.3237C20.5469 29.5097 20.8918 29.5916 21.2877 29.5916V29.1187ZM20.5339 28.929C20.3443 28.8076 20.2044 28.6554 20.1088 28.4716L19.6892 28.6898C19.825 28.951 20.0235 29.1638 20.279 29.3273L20.5339 28.929ZM20.1105 28.4749C20.0106 28.2751 19.9033 28.0062 19.7895 27.6646L19.3408 27.8142C19.4584 28.1671 19.5738 28.459 19.6875 28.6864L20.1105 28.4749ZM19.4949 27.5136C19.1175 27.6311 18.7272 27.6899 18.3233 27.6899V28.1628C18.774 28.1628 19.2116 28.0971 19.6354 27.9652L19.4949 27.5136ZM18.3233 27.6899C17.6225 27.6899 17.1008 27.4911 16.7279 27.1182L16.3935 27.4526C16.8751 27.9343 17.5286 28.1628 18.3233 28.1628V27.6899ZM16.7296 27.12C16.3734 26.7562 16.1695 26.149 16.1695 25.2424H15.6966C15.6966 26.2052 15.9111 26.96 16.3917 27.4509L16.7296 27.12ZM16.1695 25.2424C16.1695 24.4777 16.3071 23.61 16.5876 22.6372L16.1332 22.5062C15.8439 23.5097 15.6966 24.4224 15.6966 25.2424H16.1695ZM16.5876 22.6372C16.8655 21.6732 17.2672 20.8554 17.7894 20.1791L17.4151 19.89C16.8512 20.6203 16.425 21.4939 16.1332 22.5062L16.5876 22.6372ZM17.7883 20.1806C18.3051 19.5219 18.8911 19.2161 19.5518 19.2161V18.7432C18.7169 18.7432 18.0032 19.1406 17.4162 19.8886L17.7883 20.1806ZM19.5518 19.2161C19.7987 19.2161 20.0016 19.2491 20.1654 19.3087L20.327 18.8642C20.0991 18.7814 19.8391 18.7432 19.5518 18.7432V19.2161ZM20.1259 18.8829C19.6755 19.149 19.2718 19.6744 18.9002 20.4085L19.3221 20.6221C19.6805 19.9141 20.0334 19.4869 20.3665 19.2901L20.1259 18.8829ZM18.8991 20.4106C18.5346 21.1487 18.2399 21.9705 18.0138 22.8749L18.4726 22.9896C18.6916 22.1135 18.9755 21.324 19.3232 20.62L18.8991 20.4106ZM18.0138 22.8749C17.788 23.778 17.6729 24.5857 17.6729 25.2958H18.1458C18.1458 24.6349 18.2533 23.8669 18.4726 22.9896L18.0138 22.8749ZM17.6729 25.2958V25.5361H18.1458V25.2958H17.6729ZM17.6729 25.5361C17.6729 25.6909 17.6814 25.8265 17.7067 25.9273L18.1655 25.8126C18.1551 25.771 18.1458 25.684 18.1458 25.5361H17.6729ZM17.9934 26.0994C18.3024 26.0221 18.5581 25.9863 18.764 25.9863V25.5133C18.5069 25.5133 18.2107 25.5576 17.8787 25.6406L17.9934 26.0994ZM18.764 25.9863C19.1133 25.9863 19.4184 26.0897 19.6878 26.2976L19.9767 25.9231C19.6229 25.6502 19.2158 25.5133 18.764 25.5133V25.9863ZM20.0193 26.2549C20.4957 25.6384 20.8937 24.8139 21.2193 23.7919L20.7687 23.6483C20.4533 24.6381 20.0767 25.4071 19.6451 25.9657L20.0193 26.2549ZM21.2195 23.7913C21.5463 22.7563 21.7112 21.753 21.7112 20.7823H21.2382C21.2382 21.699 21.0826 22.6542 20.7685 23.6489L21.2195 23.7913ZM21.7112 20.7823C21.7112 20.2196 21.6616 19.7534 21.5545 19.393L21.1011 19.5278C21.1898 19.8261 21.2382 20.2412 21.2382 20.7823H21.7112ZM21.5565 19.4002C21.4554 19.0161 21.2572 18.7099 20.9532 18.5036L20.6876 18.8949C20.8821 19.0269 21.0222 19.2281 21.0991 19.5205L21.5565 19.4002ZM20.9532 18.5036C20.6495 18.2975 20.2443 18.209 19.7655 18.209V18.682C20.1947 18.682 20.4927 18.7627 20.6876 18.8949L20.9532 18.5036ZM19.7655 18.209C19.0461 18.209 18.3741 18.3588 17.7528 18.66L17.9591 19.0856C18.5129 18.8171 19.1139 18.682 19.7655 18.682V18.209ZM17.7554 18.6588C17.1303 18.9524 16.6253 19.3807 16.2448 19.9419L16.6362 20.2073C16.9679 19.7181 17.4065 19.3452 17.9565 19.0869L17.7554 18.6588ZM16.2443 19.9427C15.8682 20.5019 15.6832 21.1498 15.6832 21.8773H16.1562C16.1562 21.2339 16.3184 20.68 16.6367 20.2066L16.2443 19.9427ZM15.6832 21.8773C15.6832 22.1247 15.7051 22.3386 15.7658 22.4963L16.2072 22.3266C16.1788 22.2528 16.1562 22.1107 16.1562 21.8773H15.6832ZM15.7682 22.5024C15.7899 22.5544 15.8047 22.5923 15.8139 22.6178C15.8185 22.6308 15.8206 22.6377 15.8212 22.64C15.8215 22.6411 15.8209 22.6389 15.82 22.6343C15.8194 22.6314 15.8168 22.6177 15.8168 22.5984H16.2897C16.2897 22.5587 16.2799 22.524 16.2769 22.5134C16.272 22.4957 16.2657 22.477 16.2592 22.4588C16.2461 22.422 16.2276 22.3753 16.2048 22.3205L15.7682 22.5024ZM16.0532 22.3619C15.6344 22.3619 15.356 22.2773 15.1826 22.1439L14.8942 22.5188C15.1837 22.7414 15.5819 22.8349 16.0532 22.8349V22.3619ZM15.1861 22.1467C15.0387 22.0287 14.941 21.8251 14.941 21.4767H14.4681C14.4681 21.9117 14.593 22.2779 14.8907 22.516L15.1861 22.1467ZM14.941 21.4767C14.941 20.9325 15.1601 20.3988 15.6291 19.8712L15.2756 19.557C14.7475 20.1511 14.4681 20.7924 14.4681 21.4767H14.941ZM15.6277 19.8727C16.1079 19.342 16.745 18.9064 17.5468 18.5701L17.3639 18.134C16.5099 18.4921 15.8116 18.9645 15.277 19.5554L15.6277 19.8727ZM17.546 18.5705C18.3537 18.2353 19.1997 18.0677 20.0859 18.0677V17.5948C19.1383 17.5948 18.2306 17.7744 17.3647 18.1336L17.546 18.5705ZM20.0859 18.0677C21.1589 18.0677 21.8832 18.3588 22.3204 18.8896L22.6854 18.589C22.1255 17.909 21.2385 17.5948 20.0859 17.5948V18.0677ZM22.3204 18.8896C22.7732 19.4395 23.0142 20.2165 23.0142 21.2497H23.4872C23.4872 20.1464 23.2296 19.2498 22.6854 18.589L22.3204 18.8896ZM23.0142 21.2497C23.0142 21.8863 22.9239 22.5748 22.7407 23.3162L23.1998 23.4296C23.3905 22.6576 23.4872 21.9307 23.4872 21.2497H23.0142ZM22.7409 23.3155C22.5591 24.0425 22.2822 24.7348 21.9098 25.393L22.3215 25.6259C22.7147 24.9309 23.0075 24.1989 23.1997 23.4302L22.7409 23.3155ZM21.9098 25.393C21.5414 26.0442 21.0905 26.5656 20.5588 26.9623L20.8416 27.3414C21.4315 26.9013 21.9243 26.3278 22.3215 25.6259L21.9098 25.393ZM20.5034 27.2831C20.745 27.6455 21.0028 27.9348 21.2794 28.1423L21.5632 27.7639C21.3412 27.5975 21.1183 27.3527 20.897 27.0207L20.5034 27.2831ZM21.2794 28.1423C21.5782 28.3664 21.9473 28.47 22.3694 28.47V27.997C22.0258 27.997 21.7629 27.9137 21.5632 27.7639L21.2794 28.1423ZM22.3694 28.47C22.4395 28.47 22.5513 28.4591 22.6925 28.4414L22.6338 27.9721C22.4901 27.9901 22.406 27.997 22.3694 27.997V28.47ZM22.4427 28.1213C22.2797 28.5416 22.1049 28.789 21.9374 28.9096L22.2138 29.2934C22.4914 29.0935 22.7083 28.7444 22.8836 28.2923L22.4427 28.1213ZM21.9288 28.9161C21.7628 29.0475 21.5541 29.1187 21.2877 29.1187V29.5916C21.6446 29.5916 21.9611 29.4937 22.2224 29.2869L21.9288 28.9161ZM18.6838 27.0812C18.9209 27.0812 19.1383 27.0213 19.3252 26.8927L19.0573 26.503C18.9594 26.5703 18.8385 26.6083 18.6838 26.6083V27.0812ZM19.3951 26.578C19.178 26.2089 18.8499 26.0074 18.4301 26.0074V26.4803C18.6692 26.4803 18.8485 26.5815 18.9875 26.8178L19.3951 26.578ZM18.4301 26.0074C18.2682 26.0074 18.1152 26.0276 17.9733 26.0713L18.1124 26.5233C18.2021 26.4957 18.3072 26.4803 18.4301 26.4803V26.0074ZM17.8191 26.3737C17.8902 26.582 17.9941 26.7605 18.143 26.8877C18.2961 27.0184 18.4809 27.0812 18.6838 27.0812V26.6083C18.5841 26.6083 18.5108 26.5798 18.4502 26.5281C18.3855 26.4728 18.3202 26.3776 18.2667 26.2209L17.8191 26.3737ZM23.6518 27.5258L23.4818 27.6901L23.4846 27.693L23.6518 27.5258ZM23.3714 25.456L23.14 25.407L23.1395 25.4096L23.3714 25.456ZM24.2794 21.1696V20.9331H24.0878L24.0481 21.1206L24.2794 21.1696ZM26.2023 21.1696L26.4336 21.2186L26.4941 20.9331H26.2023V21.1696ZM25.2408 25.7097L25.0095 25.6607L25.009 25.6633L25.2408 25.7097ZM26.2423 26.324L26.4208 26.4792L26.424 26.4754L26.2423 26.324ZM26.6697 25.456L26.8966 25.5224L26.8991 25.5138L26.901 25.505L26.6697 25.456ZM27.5777 21.1696V20.9331H27.3861L27.3463 21.1206L27.5777 21.1696ZM29.5006 21.1696L29.7319 21.2186L29.7923 20.9331H29.5006V21.1696ZM28.5391 25.7097L28.7679 25.7707L28.7705 25.7587L28.5391 25.7097ZM28.6059 26.5243L28.4387 26.6915L28.4479 26.7007L28.4582 26.7089L28.6059 26.5243ZM29.6741 26.3106L29.4961 26.1549L29.4925 26.1592L29.6741 26.3106ZM30.1148 25.456V25.2195H29.9389L29.8883 25.3881L30.1148 25.456ZM30.6756 25.456L30.8994 25.5326L31.0066 25.2195H30.6756V25.456ZM29.4471 27.4189L29.5832 27.6123L29.5839 27.6118L29.4471 27.4189ZM27.0703 27.6059L26.9065 27.7765L26.9099 27.7797L27.0703 27.6059ZM26.6697 26.6578L26.9048 26.6328L26.8317 25.9459L26.4685 26.5335L26.6697 26.6578ZM25.7082 27.6593L25.5981 27.45L25.5958 27.4513L25.7082 27.6593ZM24.6934 27.6899C24.3198 27.6899 24.0358 27.5753 23.819 27.3586L23.4846 27.693C23.802 28.0104 24.2123 28.1628 24.6934 28.1628V27.6899ZM23.8218 27.3614C23.6219 27.1546 23.501 26.8236 23.501 26.324H23.0281C23.0281 26.8926 23.1654 27.3628 23.4818 27.6901L23.8218 27.3614ZM23.501 26.324C23.501 26.1236 23.5334 25.8515 23.6033 25.5024L23.1395 25.4096C23.0669 25.7727 23.0281 26.0792 23.0281 26.324H23.501ZM23.6027 25.505L24.5107 21.2186L24.0481 21.1206L23.14 25.407L23.6027 25.505ZM24.2794 21.4061H26.2023V20.9331H24.2794V21.4061ZM25.9709 21.1206L25.0095 25.6607L25.4722 25.7587L26.4336 21.2186L25.9709 21.1206ZM25.009 25.6633C24.9797 25.8096 24.9643 25.9499 24.9643 26.0836H25.4373C25.4373 25.9859 25.4486 25.877 25.4727 25.7561L25.009 25.6633ZM24.9643 26.0836C24.9643 26.288 25.0004 26.484 25.1101 26.6339C25.2298 26.7975 25.4079 26.8676 25.6014 26.8676V26.3946C25.5278 26.3946 25.5056 26.3735 25.4918 26.3546C25.4679 26.322 25.4373 26.2443 25.4373 26.0836H24.9643ZM25.6014 26.8676C25.9256 26.8676 26.2023 26.7304 26.4208 26.4791L26.0639 26.1688C25.9263 26.3271 25.7757 26.3946 25.6014 26.3946V26.8676ZM26.424 26.4754C26.6289 26.2294 26.7838 25.9078 26.8966 25.5224L26.4427 25.3896C26.3418 25.7342 26.2118 25.9912 26.0607 26.1726L26.424 26.4754ZM26.901 25.505L27.809 21.2186L27.3463 21.1206L26.4383 25.407L26.901 25.505ZM27.5777 21.4061H29.5006V20.9331H27.5777V21.4061ZM29.2692 21.1206L28.3078 25.6607L28.7705 25.7587L29.7319 21.2186L29.2692 21.1206ZM28.3106 25.6488C28.2692 25.804 28.2492 25.9671 28.2492 26.137H28.7222C28.7222 26.0043 28.7378 25.8825 28.7676 25.7707L28.3106 25.6488ZM28.2492 26.137C28.2492 26.343 28.2945 26.5474 28.4387 26.6915L28.7731 26.3571C28.757 26.341 28.7222 26.2871 28.7222 26.137H28.2492ZM28.4582 26.7089C28.61 26.8304 28.8185 26.8676 29.0332 26.8676V26.3946C28.8561 26.3946 28.7798 26.3606 28.7536 26.3396L28.4582 26.7089ZM29.0332 26.8676C29.3613 26.8676 29.6387 26.7225 29.8558 26.462L29.4925 26.1592C29.3535 26.326 29.2036 26.3946 29.0332 26.3946V26.8676ZM29.8521 26.4663C30.0671 26.2207 30.2276 25.9029 30.3413 25.524L29.8883 25.3881C29.7883 25.7213 29.6551 25.9733 29.4962 26.1549L29.8521 26.4663ZM30.1148 25.6925H30.6756V25.2195H30.1148V25.6925ZM30.4519 25.3794C30.1286 26.3232 29.7401 26.9214 29.3104 27.226L29.5839 27.6118C30.1335 27.2222 30.5639 26.5117 30.8994 25.5326L30.4519 25.3794ZM29.3111 27.2256C28.862 27.5415 28.4234 27.6899 27.9916 27.6899V28.1628C28.5391 28.1628 29.0708 27.9729 29.5832 27.6123L29.3111 27.2256ZM27.9916 27.6899C27.6548 27.6899 27.4094 27.5972 27.2306 27.4321L26.9099 27.7797C27.194 28.0419 27.5629 28.1628 27.9916 28.1628V27.6899ZM27.234 27.4353C27.0642 27.2723 26.9456 27.0159 26.9048 26.6328L26.4345 26.6828C26.4828 27.1365 26.6312 27.5122 26.9065 27.7765L27.234 27.4353ZM26.4685 26.5335C26.1776 27.004 25.8847 27.2992 25.5981 27.45L25.8183 27.8686C26.2083 27.6633 26.5563 27.2909 26.8708 26.7821L26.4685 26.5335ZM25.5958 27.4513C25.2981 27.6122 24.9982 27.6899 24.6934 27.6899V28.1628C25.0829 28.1628 25.4595 28.0625 25.8207 27.8673L25.5958 27.4513ZM30.5005 27.3922L30.3439 27.5694L30.3439 27.5694L30.5005 27.3922ZM30.3002 23.7735L30.5243 23.8491L30.5243 23.8491L30.3002 23.7735ZM31.502 21.864L31.6664 22.0339L31.6678 22.0325L31.502 21.864ZM35.2943 23.1993H35.0579V23.3697L35.2195 23.4236L35.2943 23.1993ZM36.4561 22.9856L36.543 23.2056L36.5474 23.2038L36.4561 22.9856ZM37.4976 22.4115L37.722 22.3367L37.6207 22.0329L37.3602 22.219L37.4976 22.4115ZM37.6178 22.772L37.7905 22.9335L37.8867 22.8307L37.8421 22.6972L37.6178 22.772ZM36.603 23.4797L36.7012 23.6948L36.7032 23.6939L36.603 23.4797ZM35.2543 23.8803L35.2161 23.647L35.0348 23.6766L35.0187 23.8596L35.2543 23.8803ZM34.7068 26.0035L34.494 25.9003L34.494 25.9003L34.7068 26.0035ZM33.5718 27.4056L33.4347 27.2129L33.4347 27.2129L33.5718 27.4056ZM33.2379 26.3373L33.4147 26.4945L33.4175 26.4912L33.2379 26.3373ZM33.7988 25.3358L34.0196 25.4204L34.0202 25.4189L33.7988 25.3358ZM34.1459 23.9204L34.3802 23.9527L34.41 23.7368L34.1972 23.6895L34.1459 23.9204ZM34.1994 22.6385L34.2908 22.8565L34.4455 22.7916L34.4354 22.6242L34.1994 22.6385ZM34.0658 22.0376L33.8643 22.1616L33.8691 22.1687L34.0658 22.0376ZM32.8373 22.5049L33.036 22.6332L33.036 22.6332L32.8373 22.5049ZM32.1697 24.0406L32.3972 24.1051L32.3972 24.1051L32.1697 24.0406ZM32.0628 26.4842L31.8642 26.6127L31.868 26.6182L32.0628 26.4842ZM32.0628 27.6632C31.4446 27.6632 30.9853 27.5051 30.6571 27.215L30.3439 27.5694C30.7812 27.9559 31.3635 28.1361 32.0628 28.1361V27.6632ZM30.6571 27.215C30.3438 26.9382 30.1628 26.4819 30.1628 25.7898H29.6898C29.6898 26.5577 29.8916 27.1697 30.3439 27.5694L30.6571 27.215ZM30.1628 25.7898C30.1628 25.2164 30.281 24.5703 30.5243 23.8491L30.0761 23.6979C29.8209 24.4545 29.6898 25.1526 29.6898 25.7898H30.1628ZM30.5243 23.8491C30.7616 23.1454 31.142 22.5414 31.6664 22.0339L31.3375 21.694C30.7581 22.2548 30.3373 22.9238 30.0761 23.6979L30.5243 23.8491ZM31.6678 22.0325C32.1718 21.5367 32.8048 21.2859 33.5851 21.2859V20.8129C32.6918 20.8129 31.9361 21.1051 31.3361 21.6954L31.6678 22.0325ZM33.5851 21.2859C34.1027 21.2859 34.4534 21.445 34.6824 21.7313C34.9194 22.0276 35.0579 22.499 35.0579 23.1859H35.5308C35.5308 22.4485 35.3843 21.8517 35.0517 21.4358C34.7109 21.0099 34.207 20.8129 33.5851 20.8129V21.2859ZM35.0579 23.1859V23.1993H35.5308V23.1859H35.0579ZM35.2195 23.4236C35.287 23.4461 35.3718 23.4491 35.4412 23.4491V22.9762C35.4099 22.9762 35.3875 22.9752 35.3725 22.9738C35.3651 22.9731 35.3611 22.9725 35.3596 22.9723C35.3578 22.9719 35.3616 22.9725 35.3691 22.975L35.2195 23.4236ZM35.4412 23.4491C35.7741 23.4491 36.1428 23.3638 36.543 23.2056L36.3691 22.7657C36.0037 22.9102 35.6959 22.9762 35.4412 22.9762V23.4491ZM36.5474 23.2038C36.9451 23.0373 37.308 22.8375 37.6351 22.6039L37.3602 22.219C37.0641 22.4305 36.7326 22.6135 36.3648 22.7675L36.5474 23.2038ZM37.2733 22.4862L37.3935 22.8468L37.8421 22.6972L37.722 22.3367L37.2733 22.4862ZM37.4451 22.6104C37.2115 22.8601 36.8997 23.0797 36.5027 23.2655L36.7032 23.6939C37.143 23.488 37.5077 23.2358 37.7905 22.9335L37.4451 22.6104ZM36.5047 23.2646C36.1162 23.442 35.6871 23.5699 35.2161 23.647L35.2925 24.1137C35.8007 24.0305 36.2707 23.8913 36.7012 23.6948L36.5047 23.2646ZM35.0187 23.8596C34.9495 24.6469 34.7729 25.3256 34.494 25.9003L34.9195 26.1067C35.2282 25.4707 35.4166 24.734 35.4898 23.901L35.0187 23.8596ZM34.494 25.9003C34.2144 26.4765 33.8598 26.9104 33.4347 27.2129L33.7088 27.5983C34.2096 27.242 34.6116 26.7412 34.9195 26.1067L34.494 25.9003ZM33.4347 27.2129C33.0098 27.5152 32.5544 27.6632 32.0628 27.6632V28.1361C32.6574 28.1361 33.2079 27.9547 33.7088 27.5983L33.4347 27.2129ZM32.597 26.9343C32.9062 26.9343 33.1789 26.7596 33.4147 26.4944L33.0612 26.1802C32.8696 26.3957 32.715 26.4614 32.597 26.4614V26.9343ZM33.4175 26.4912C33.6539 26.2154 33.8529 25.8555 34.0196 25.4204L33.5779 25.2513C33.4241 25.653 33.2493 25.9607 33.0584 26.1834L33.4175 26.4912ZM34.0202 25.4189C34.1873 24.9731 34.3069 24.4839 34.3802 23.9527L33.9117 23.8881C33.8425 24.3895 33.7306 24.844 33.5773 25.2528L34.0202 25.4189ZM34.1972 23.6895C34.1307 23.6748 34.097 23.6474 34.0745 23.6122C34.0475 23.5703 34.0219 23.4935 34.0219 23.3595H33.5489C33.5489 23.5461 33.5834 23.723 33.6766 23.868C33.7742 24.0198 33.9208 24.1126 34.0946 24.1512L34.1972 23.6895ZM34.0219 23.3595C34.0219 23.2056 34.0511 23.098 34.094 23.0233C34.135 22.9518 34.1966 22.896 34.2908 22.8565L34.1079 22.4204C33.9261 22.4966 33.7808 22.6189 33.6838 22.7878C33.5887 22.9534 33.5489 23.1484 33.5489 23.3595H34.0219ZM34.4354 22.6242C34.426 22.4697 34.4093 22.3329 34.3835 22.2166C34.3582 22.103 34.3211 21.9942 34.2626 21.9064L33.8691 22.1687C33.8817 22.1877 33.9025 22.2326 33.9218 22.3192C33.9404 22.4032 33.9549 22.5135 33.9633 22.6528L34.4354 22.6242ZM34.2672 21.9136C34.1397 21.7065 33.9233 21.6275 33.6919 21.6275V22.1004C33.8167 22.1004 33.8495 22.1372 33.8644 22.1615L34.2672 21.9136ZM33.6919 21.6275C33.273 21.6275 32.9263 21.9312 32.6387 22.3766L33.036 22.6332C33.3002 22.224 33.5234 22.1004 33.6919 22.1004V21.6275ZM32.6387 22.3766C32.3475 22.8274 32.1163 23.3618 31.9422 23.976L32.3972 24.1051C32.5612 23.5264 32.7751 23.0371 33.036 22.6332L32.6387 22.3766ZM31.9422 23.976C31.7691 24.5864 31.6795 25.1341 31.6795 25.6162H32.1524C32.1524 25.1904 32.232 24.6876 32.3972 24.1051L31.9422 23.976ZM31.6795 25.6162C31.6795 25.8377 31.6921 26.0311 31.7195 26.1932C31.7464 26.3521 31.7903 26.4983 31.8643 26.6127L32.2614 26.3558C32.2374 26.3188 32.2079 26.2447 32.1858 26.1143C32.1643 25.9871 32.1524 25.8221 32.1524 25.6162H31.6795ZM31.868 26.6182C32.0288 26.8522 32.3015 26.9343 32.597 26.9343V26.4614C32.3761 26.4614 32.2927 26.4011 32.2577 26.3502L31.868 26.6182ZM36.2618 27.5258L36.0918 27.6901L36.0946 27.693L36.2618 27.5258ZM35.9814 25.456L35.7501 25.4066L35.7495 25.4096L35.9814 25.456ZM36.7826 21.7037L37.0139 21.7531L37.0749 21.4673H36.7826V21.7037ZM36.3419 21.7037L36.1101 21.6574L36.0535 21.9402H36.3419V21.7037ZM36.4488 21.1696V20.9331H36.2549L36.2169 21.1232L36.4488 21.1696ZM36.8894 21.1696V21.4061H37.08L37.1205 21.2198L36.8894 21.1696ZM37.29 19.3268L37.2584 19.0925L37.0941 19.1147L37.0589 19.2766L37.29 19.3268ZM39.2663 19.0598L39.4975 19.1095L39.5683 18.7803L39.2346 18.8254L39.2663 19.0598ZM38.8123 21.1696L38.5811 21.1198L38.5195 21.4061H38.8123V21.1696ZM39.6135 21.1696L39.8454 21.216L39.9019 20.9331H39.6135V21.1696ZM39.5067 21.7037V21.9402H39.7005L39.7386 21.7501L39.5067 21.7037ZM38.7055 21.7037V21.4673H38.5141L38.4742 21.6544L38.7055 21.7037ZM37.8509 25.7097L38.0796 25.7707L38.0821 25.7591L37.8509 25.7097ZM37.9176 26.5243L37.7504 26.6915L37.7597 26.7007L37.7699 26.7089L37.9176 26.5243ZM39.066 26.3106L39.2298 26.4812L39.2332 26.4778L39.066 26.3106ZM39.5467 25.456V25.2195H39.3677L39.3191 25.3918L39.5467 25.456ZM40.1076 25.456L40.3313 25.5326L40.4385 25.2195H40.1076V25.456ZM38.839 27.4189L38.9686 27.6168L38.971 27.6152L38.839 27.4189ZM37.3034 27.6899C36.9298 27.6899 36.6458 27.5753 36.429 27.3586L36.0946 27.693C36.412 28.0104 36.8223 28.1628 37.3034 28.1628V27.6899ZM36.4318 27.3614C36.2319 27.1546 36.111 26.8236 36.111 26.324H35.6381C35.6381 26.8926 35.7754 27.3628 36.0918 27.6901L36.4318 27.3614ZM36.111 26.324C36.111 26.1236 36.1435 25.8515 36.2133 25.5024L35.7495 25.4096C35.6769 25.7727 35.6381 26.0792 35.6381 26.324H36.111ZM36.2127 25.5054L37.0139 21.7531L36.5513 21.6543L35.7501 25.4066L36.2127 25.5054ZM36.7826 21.4673H36.3419V21.9402H36.7826V21.4673ZM36.5738 21.7501L36.6806 21.216L36.2169 21.1232L36.1101 21.6574L36.5738 21.7501ZM36.4488 21.4061H36.8894V20.9331H36.4488V21.4061ZM37.1205 21.2198L37.5211 19.3771L37.0589 19.2766L36.6583 21.1194L37.1205 21.2198ZM37.3217 19.5612L39.298 19.2941L39.2346 18.8254L37.2584 19.0925L37.3217 19.5612ZM39.0351 19.01L38.5811 21.1198L39.0435 21.2193L39.4975 19.1095L39.0351 19.01ZM38.8123 21.4061H39.6135V20.9331H38.8123V21.4061ZM39.3816 21.1232L39.2748 21.6574L39.7386 21.7501L39.8454 21.216L39.3816 21.1232ZM39.5067 21.4673H38.7055V21.9402H39.5067V21.4673ZM38.4742 21.6544L37.6196 25.6604L38.0821 25.7591L38.9367 21.7531L38.4742 21.6544ZM37.6224 25.6488C37.581 25.804 37.561 25.9671 37.561 26.137H38.0339C38.0339 26.0043 38.0495 25.8825 38.0793 25.7707L37.6224 25.6488ZM37.561 26.137C37.561 26.343 37.6063 26.5474 37.7504 26.6915L38.0848 26.3571C38.0687 26.341 38.0339 26.2871 38.0339 26.137H37.561ZM37.7699 26.7089C37.9218 26.8304 38.1303 26.8676 38.3449 26.8676V26.3946C38.1679 26.3946 38.0915 26.3606 38.0654 26.3396L37.7699 26.7089ZM38.3449 26.8676C38.6757 26.8676 38.9723 26.7284 39.2298 26.4812L38.9023 26.14C38.7146 26.3202 38.5305 26.3946 38.3449 26.3946V26.8676ZM39.2332 26.4778C39.4883 26.2227 39.667 25.9006 39.7743 25.5202L39.3191 25.3918C39.2306 25.7058 39.0888 25.9534 38.8988 26.1434L39.2332 26.4778ZM39.5467 25.6925H40.1076V25.2195H39.5467V25.6925ZM39.8839 25.3794C39.5615 26.3204 39.161 26.9175 38.7071 27.2227L38.971 27.6152C39.5497 27.226 39.9949 26.5145 40.3313 25.5326L39.8839 25.3794ZM38.7094 27.2211C38.2232 27.5397 37.7556 27.6899 37.3034 27.6899V28.1628C37.866 28.1628 38.4222 27.9748 38.9686 27.6167L38.7094 27.2211ZM39.902 27.4189L39.739 27.5903L39.7412 27.5924L39.902 27.4189ZM39.715 23.7735L39.9399 23.8466L39.9399 23.8466L39.715 23.7735ZM40.8901 21.864L41.0559 22.0326L41.0573 22.0312L40.8901 21.864ZM44.0014 23.7067L44.1969 23.8398L44.1969 23.8398L44.0014 23.7067ZM42.8664 24.7216L42.9769 24.9307L42.9799 24.929L42.8664 24.7216ZM41.3575 25.1489L41.3417 24.9129L41.1402 24.9264L41.122 25.1275L41.3575 25.1489ZM43.7344 25.9501L43.967 25.9925L44.0897 25.3201L43.5777 25.773L43.7344 25.9501ZM41.4509 24.5079L41.2198 24.4582L41.1565 24.7522L41.4572 24.7443L41.4509 24.5079ZM42.399 24.1741L42.2626 23.9809L42.2599 23.9828L42.399 24.1741ZM43.1201 23.3595L42.9131 23.2452L42.9121 23.2471L43.1201 23.3595ZM42.132 22.6118L41.9245 22.4983L41.9239 22.4994L42.132 22.6118ZM41.4242 27.6899C40.8152 27.6899 40.3719 27.5321 40.0627 27.2455L39.7412 27.5924C40.162 27.9824 40.7335 28.1628 41.4242 28.1628V27.6899ZM40.0649 27.2476C39.7646 26.9619 39.5909 26.4978 39.5909 25.8032H39.118C39.118 26.5686 39.3093 27.1816 39.739 27.5903L40.0649 27.2476ZM39.5909 25.8032C39.5909 25.2194 39.7053 24.5679 39.9399 23.8466L39.4901 23.7003C39.244 24.4569 39.118 25.1585 39.118 25.8032H39.5909ZM39.9399 23.8466C40.1687 23.1431 40.5405 22.5395 41.0559 22.0326L40.7243 21.6954C40.1536 22.2567 39.742 22.9261 39.4901 23.7003L39.9399 23.8466ZM41.0573 22.0312C41.5518 21.5367 42.1796 21.2859 42.9599 21.2859V20.8129C42.0665 20.8129 41.3145 21.1052 40.7229 21.6968L41.0573 22.0312ZM42.9599 21.2859C43.4203 21.2859 43.7215 21.387 43.906 21.5481C44.0844 21.7037 44.1923 21.9495 44.1923 22.3313H44.6652C44.6652 21.8586 44.5283 21.4634 44.217 21.1917C43.9119 20.9254 43.4786 20.8129 42.9599 20.8129V21.2859ZM44.1923 22.3313C44.1923 22.7816 44.0645 23.1938 43.806 23.5736L44.1969 23.8398C44.508 23.3828 44.6652 22.8781 44.6652 22.3313H44.1923ZM43.806 23.5736C43.5434 23.9592 43.194 24.2728 42.7529 24.5141L42.9799 24.929C43.4824 24.6541 43.8897 24.2911 44.1969 23.8398L43.806 23.5736ZM42.7559 24.5125C42.3135 24.7462 41.8429 24.8795 41.3417 24.9129L41.3732 25.3848C41.9403 25.347 42.4756 25.1955 42.9768 24.9307L42.7559 24.5125ZM41.122 25.1275C41.1043 25.3222 41.0943 25.466 41.0943 25.5495H41.5672C41.5672 25.4905 41.5751 25.3673 41.593 25.1703L41.122 25.1275ZM41.0943 25.5495C41.0943 25.9415 41.1663 26.2786 41.3483 26.5222C41.54 26.7788 41.8246 26.8943 42.1587 26.8943V26.4213C41.9407 26.4213 41.8115 26.3521 41.7272 26.2392C41.6332 26.1134 41.5672 25.8963 41.5672 25.5495H41.0943ZM42.1587 26.8943C42.4505 26.8943 42.7519 26.8161 43.0602 26.6716L42.8595 26.2434C42.598 26.3659 42.3654 26.4213 42.1587 26.4213V26.8943ZM43.0602 26.6716C43.3652 26.5287 43.6424 26.3472 43.891 26.1272L43.5777 25.773C43.3634 25.9625 43.1243 26.1193 42.8595 26.2434L43.0602 26.6716ZM43.5017 25.9076C43.3881 26.5302 43.1549 26.9685 42.8228 27.2526C42.4916 27.536 42.034 27.6899 41.4242 27.6899V28.1628C42.1142 28.1628 42.6915 27.9874 43.1303 27.612C43.5682 27.2373 43.8402 26.6874 43.967 25.9925L43.5017 25.9076ZM41.4572 24.7443C41.8468 24.7341 42.2086 24.605 42.5381 24.3653L42.2599 23.9828C42.0019 24.1705 41.7316 24.264 41.4447 24.2715L41.4572 24.7443ZM42.5354 24.3673C42.8682 24.1324 43.1329 23.8331 43.3281 23.472L42.9121 23.2471C42.7512 23.5447 42.5352 23.7885 42.2627 23.9809L42.5354 24.3673ZM43.3271 23.4739C43.5322 23.1027 43.637 22.712 43.637 22.3046H43.1641C43.1641 22.6272 43.0819 22.9398 42.9131 23.2452L43.3271 23.4739ZM43.637 22.3046C43.637 22.1058 43.6081 21.917 43.519 21.7709C43.4183 21.6058 43.2563 21.5207 43.0667 21.5207V21.9936C43.0895 21.9936 43.0979 21.9981 43.0993 21.9988C43.1003 21.9994 43.1062 22.0024 43.1152 22.0171C43.1373 22.0535 43.1641 22.1385 43.1641 22.3046H43.637ZM43.0667 21.5207C42.8336 21.5207 42.6235 21.6283 42.4398 21.7963C42.2573 21.9631 42.0868 22.2015 41.9245 22.4983L42.3394 22.7252C42.4887 22.4523 42.6298 22.2634 42.7589 22.1453C42.8868 22.0284 42.9882 21.9936 43.0667 21.9936V21.5207ZM41.9239 22.4994C41.6093 23.0823 41.3752 23.7358 41.2198 24.4582L41.6821 24.5577C41.8293 23.8735 42.0493 23.2629 42.3401 22.7241L41.9239 22.4994ZM49.1158 27.7928L49.0173 28.0078L49.0173 28.0078L49.1158 27.7928ZM48.1277 26.9783L47.9294 27.1072L47.9309 27.1095L48.1277 26.9783ZM48.0209 24.6815L47.8117 24.5711L47.8094 24.5758L48.0209 24.6815ZM48.6885 23.9204L48.5588 23.7227L48.5559 23.7246L48.6885 23.9204ZM50.4111 23.8803L50.2692 24.0696L50.2744 24.0733L50.4111 23.8803ZM50.8117 24.5213V24.7577H51.0983L51.0439 24.4763L50.8117 24.5213ZM49.7034 24.8952L49.8587 25.0735L49.8619 25.0707L49.7034 24.8952ZM51.7197 26.6845L51.5502 26.5197L51.5501 26.5197L51.7197 26.6845ZM51.8399 24.2943L52.041 24.1698L52.041 24.1698L51.8399 24.2943ZM50.7984 22.9322L50.9771 22.7774L50.9767 22.7769L50.7984 22.9322ZM49.7034 21.5168L49.5005 21.6385L49.5039 21.6437L49.7034 21.5168ZM49.7301 18.9663L49.9232 19.1029L49.9247 19.1007L49.7301 18.9663ZM50.7984 18.085L50.8991 18.2989L50.8991 18.2989L50.7984 18.085ZM54.0566 18.2719L53.9098 18.4573L53.9117 18.4588L54.0566 18.2719ZM54.4305 20.542L54.2465 20.3934L54.2465 20.3934L54.4305 20.542ZM52.8815 20.4752L52.7412 20.2848L52.5502 20.4256L52.6916 20.6161L52.8815 20.4752ZM53.2821 19.9811L53.0688 19.8791L53.0688 19.8791L53.2821 19.9811ZM51.5996 18.7927L51.4235 18.6348L51.4232 18.6352L51.5996 18.7927ZM51.5729 20.7556L51.3752 20.8855L51.377 20.8881L51.5729 20.7556ZM52.5343 21.9307L52.3592 22.0897L52.3612 22.0918L52.5343 21.9307ZM53.3889 22.9189L53.2019 23.0637L53.2048 23.0673L53.3889 22.9189ZM53.9497 23.8803L53.7312 23.9709L53.7341 23.9774L53.9497 23.8803ZM53.7094 26.591L53.5149 26.4564L53.5132 26.459L53.7094 26.591ZM52.4141 27.686L52.3111 27.4731L52.3098 27.4738L52.4141 27.686ZM50.5981 27.8501C50.0648 27.8501 49.6054 27.7571 49.2144 27.5779L49.0173 28.0078C49.4809 28.2203 50.0097 28.3231 50.5981 28.3231V27.8501ZM49.2144 27.5779C48.8218 27.3979 48.5286 27.1533 48.3245 26.8471L47.9309 27.1095C48.1897 27.4976 48.5553 27.7961 49.0173 28.0078L49.2144 27.5779ZM48.326 26.8494C48.1217 26.5351 48.017 26.1712 48.017 25.7498H47.544C47.544 26.2542 47.6708 26.7093 47.9294 27.1072L48.326 26.8494ZM48.017 25.7498C48.017 25.3913 48.09 25.0719 48.2324 24.7873L47.8094 24.5758C47.6312 24.9321 47.544 25.3249 47.544 25.7498H48.017ZM48.23 24.7919C48.3827 24.5027 48.5801 24.2795 48.8212 24.1162L48.5559 23.7246C48.2451 23.9352 47.9974 24.2194 47.8117 24.5711L48.23 24.7919ZM48.8183 24.1181C49.0649 23.9562 49.3314 23.8764 49.6233 23.8764V23.4035C49.2385 23.4035 48.8819 23.5106 48.5588 23.7227L48.8183 24.1181ZM49.6233 23.8764C49.8925 23.8764 50.1031 23.9449 50.2692 24.0695L50.553 23.6911C50.2919 23.4953 49.9772 23.4035 49.6233 23.4035V23.8764ZM50.2744 24.0733C50.4345 24.1867 50.5368 24.3452 50.5796 24.5662L51.0439 24.4763C50.9798 24.1454 50.815 23.8766 50.5478 23.6874L50.2744 24.0733ZM50.8117 24.2848C50.3052 24.2848 49.8743 24.4222 49.5449 24.7197L49.8619 25.0707C50.0845 24.8696 50.3924 24.7577 50.8117 24.7577V24.2848ZM49.5481 24.7169C49.2129 25.0088 49.053 25.4074 49.053 25.8833H49.5259C49.5259 25.5224 49.642 25.2622 49.8587 25.0735L49.5481 24.7169ZM49.053 25.8833C49.053 26.3174 49.1861 26.6886 49.4694 26.9719L49.8038 26.6375C49.6242 26.4579 49.5259 26.2149 49.5259 25.8833H49.053ZM49.4694 26.9719C49.7527 27.2552 50.124 27.3884 50.558 27.3884V26.9154C50.2265 26.9154 49.9834 26.8171 49.8038 26.6375L49.4694 26.9719ZM50.558 27.3884C51.0876 27.3884 51.5381 27.2109 51.8894 26.8493L51.5501 26.5197C51.2961 26.7813 50.972 26.9154 50.558 26.9154V27.3884ZM51.8893 26.8494C52.2472 26.4812 52.4236 26.0199 52.4236 25.4827H51.9506C51.9506 25.907 51.8154 26.2469 51.5502 26.5197L51.8893 26.8494ZM52.4236 25.4827C52.4236 25.018 52.2944 24.5791 52.041 24.1698L51.6389 24.4187C51.8484 24.7572 51.9506 25.1106 51.9506 25.4827H52.4236ZM52.041 24.1698C51.8002 23.7808 51.4439 23.316 50.9771 22.7774L50.6197 23.0871C51.0786 23.6167 51.4168 24.06 51.6389 24.4187L52.041 24.1698ZM50.9767 22.7769C50.4998 22.2294 50.1433 21.7676 49.9029 21.3898L49.5039 21.6437C49.762 22.0494 50.1354 22.5311 50.62 23.0875L50.9767 22.7769ZM49.9062 21.3951C49.6881 21.0317 49.5793 20.6376 49.5793 20.2082H49.1064C49.1064 20.7224 49.238 21.2007 49.5006 21.6384L49.9062 21.3951ZM49.5793 20.2082C49.5793 19.7923 49.6943 19.4264 49.9232 19.1029L49.537 18.8297C49.2496 19.2361 49.1064 19.6982 49.1064 20.2082H49.5793ZM49.9247 19.1007C50.1567 18.7646 50.4788 18.4967 50.8991 18.2989L50.6977 17.871C50.2099 18.1005 49.8198 18.4202 49.5355 18.8319L49.9247 19.1007ZM50.8991 18.2989C51.3176 18.102 51.7943 18.001 52.334 18.001V17.528C51.7342 17.528 51.1872 17.6407 50.6977 17.871L50.8991 18.2989ZM52.334 18.001C53.019 18.001 53.536 18.1614 53.9098 18.4573L54.2033 18.0865C53.7225 17.7058 53.0911 17.528 52.334 17.528V18.001ZM53.9117 18.4588C54.288 18.7506 54.4744 19.1346 54.4744 19.634H54.9474C54.9474 18.9939 54.6976 18.4698 54.2015 18.0851L53.9117 18.4588ZM54.4744 19.634C54.4744 19.968 54.3915 20.2139 54.2465 20.3934L54.6144 20.6906C54.8433 20.4072 54.9474 20.0477 54.9474 19.634H54.4744ZM54.2465 20.3934C54.1053 20.5682 53.9287 20.6527 53.696 20.6527V21.1256C54.0687 21.1256 54.3817 20.9787 54.6144 20.6906L54.2465 20.3934ZM53.696 20.6527C53.434 20.6527 53.2324 20.5513 53.0714 20.3343L52.6916 20.6161C52.9401 20.9511 53.2815 21.1256 53.696 21.1256V20.6527ZM53.0218 20.6656C53.2246 20.5161 53.3821 20.32 53.4954 20.0832L53.0688 19.8791C52.9862 20.0518 52.8766 20.1851 52.7412 20.2848L53.0218 20.6656ZM53.4954 20.0832C53.6083 19.8472 53.6654 19.5988 53.6654 19.3402H53.1925C53.1925 19.5267 53.1518 19.7056 53.0688 19.8791L53.4954 20.0832ZM53.6654 19.3402C53.6654 19.0054 53.5643 18.7138 53.3425 18.492L53.008 18.8264C53.1245 18.9429 53.1925 19.1052 53.1925 19.3402H53.6654ZM53.3425 18.492C53.1193 18.2688 52.8222 18.169 52.4809 18.169V18.6419C52.7271 18.6419 52.8929 18.7113 53.008 18.8264L53.3425 18.492ZM52.4809 18.169C52.0597 18.169 51.7012 18.3251 51.4235 18.6348L51.7756 18.9506C51.9609 18.7439 52.1899 18.6419 52.4809 18.6419V18.169ZM51.4232 18.6352C51.1554 18.9351 51.0293 19.315 51.0293 19.7541H51.5022C51.5022 19.4099 51.5986 19.1488 51.776 18.9502L51.4232 18.6352ZM51.0293 19.7541C51.0293 20.1586 51.1464 20.5373 51.3752 20.8855L51.7705 20.6258C51.5898 20.3509 51.5022 20.0618 51.5022 19.7541H51.0293ZM51.377 20.8881C51.5911 21.2046 51.9203 21.6059 52.3592 22.0896L52.7094 21.7718C52.2759 21.2941 51.9642 20.9121 51.7687 20.6231L51.377 20.8881ZM52.3612 22.0918C52.7145 22.4717 52.9942 22.7953 53.2019 23.0636L53.5759 22.7741C53.3563 22.4905 53.0662 22.1554 52.7074 21.7697L52.3612 22.0918ZM53.2048 23.0673C53.4117 23.3239 53.5876 23.6244 53.7313 23.9709L54.1682 23.7897C54.0092 23.4063 53.8112 23.0658 53.573 22.7704L53.2048 23.0673ZM53.7341 23.9774C53.8796 24.3008 53.9536 24.6547 53.9536 25.0421H54.4266C54.4266 24.5926 54.3403 24.172 54.1654 23.7833L53.7341 23.9774ZM53.9536 25.0421C53.9536 25.5643 53.8077 26.0336 53.515 26.4564L53.9038 26.7256C54.252 26.2227 54.4266 25.6593 54.4266 25.0421H53.9536ZM53.5132 26.459C53.2273 26.8838 52.8292 27.2225 52.3111 27.4732L52.5171 27.8989C53.1029 27.6154 53.5684 27.2241 53.9056 26.7231L53.5132 26.459ZM52.3098 27.4738C51.8024 27.7233 51.2333 27.8501 50.5981 27.8501V28.3231C51.2981 28.3231 51.9397 28.1828 52.5185 27.8982L52.3098 27.4738ZM55.2225 27.5258L55.0524 27.6901L55.0553 27.693L55.2225 27.5258ZM54.9421 25.456L54.7108 25.4066L54.7102 25.4096L54.9421 25.456ZM55.7433 21.7037L55.9745 21.7531L56.0356 21.4673H55.7433V21.7037ZM55.3026 21.7037L55.0707 21.6574L55.0142 21.9402H55.3026V21.7037ZM55.4094 21.1696V20.9331H55.2156L55.1776 21.1232L55.4094 21.1696ZM55.8501 21.1696V21.4061H56.0407L56.0812 21.2198L55.8501 21.1696ZM56.2507 19.3268L56.219 19.0925L56.0548 19.1147L56.0196 19.2766L56.2507 19.3268ZM58.227 19.0598L58.4582 19.1095L58.529 18.7803L58.1953 18.8254L58.227 19.0598ZM57.773 21.1696L57.5418 21.1198L57.4802 21.4061H57.773V21.1696ZM58.5742 21.1696L58.806 21.216L58.8626 20.9331H58.5742V21.1696ZM58.4673 21.7037V21.9402H58.6612L58.6992 21.7501L58.4673 21.7037ZM57.6661 21.7037V21.4673H57.4748L57.4349 21.6544L57.6661 21.7037ZM56.8115 25.7097L57.0403 25.7707L57.0428 25.7591L56.8115 25.7097ZM56.8783 26.5243L56.7111 26.6915L56.7203 26.7007L56.7306 26.7089L56.8783 26.5243ZM58.0267 26.3106L58.1905 26.4812L58.1939 26.4778L58.0267 26.3106ZM58.5074 25.456V25.2195H58.3284L58.2798 25.3918L58.5074 25.456ZM59.0682 25.456L59.2919 25.5326L59.3992 25.2195H59.0682V25.456ZM57.7997 27.4189L57.9293 27.6168L57.9316 27.6152L57.7997 27.4189ZM56.264 27.6899C55.8905 27.6899 55.6064 27.5753 55.3897 27.3586L55.0553 27.693C55.3727 28.0104 55.783 28.1628 56.264 28.1628V27.6899ZM55.3925 27.3614C55.1925 27.1546 55.0717 26.8236 55.0717 26.324H54.5988C54.5988 26.8926 54.7361 27.3628 55.0525 27.6901L55.3925 27.3614ZM55.0717 26.324C55.0717 26.1236 55.1041 25.8515 55.1739 25.5024L54.7102 25.4096C54.6376 25.7727 54.5988 26.0792 54.5988 26.324H55.0717ZM55.1733 25.5054L55.9745 21.7531L55.512 21.6543L54.7108 25.4066L55.1733 25.5054ZM55.7433 21.4673H55.3026V21.9402H55.7433V21.4673ZM55.5345 21.7501L55.6413 21.216L55.1776 21.1232L55.0707 21.6574L55.5345 21.7501ZM55.4094 21.4061H55.8501V20.9331H55.4094V21.4061ZM56.0812 21.2198L56.4818 19.3771L56.0196 19.2766L55.619 21.1194L56.0812 21.2198ZM56.2824 19.5612L58.2586 19.2941L58.1953 18.8254L56.219 19.0925L56.2824 19.5612ZM57.9958 19.01L57.5418 21.1198L58.0041 21.2193L58.4582 19.1095L57.9958 19.01ZM57.773 21.4061H58.5742V20.9331H57.773V21.4061ZM58.3423 21.1232L58.2355 21.6574L58.6992 21.7501L58.806 21.216L58.3423 21.1232ZM58.4673 21.4673H57.6661V21.9402H58.4673V21.4673ZM57.4349 21.6544L56.5803 25.6604L57.0428 25.7591L57.8974 21.7531L57.4349 21.6544ZM56.583 25.6488C56.5417 25.804 56.5216 25.9671 56.5216 26.137H56.9946C56.9946 26.0043 57.0102 25.8825 57.04 25.7707L56.583 25.6488ZM56.5216 26.137C56.5216 26.343 56.567 26.5474 56.7111 26.6915L57.0455 26.3571C57.0294 26.341 56.9946 26.2871 56.9946 26.137H56.5216ZM56.7306 26.7089C56.8824 26.8304 57.0909 26.8676 57.3056 26.8676V26.3946C57.1286 26.3946 57.0522 26.3606 57.026 26.3396L56.7306 26.7089ZM57.3056 26.8676C57.6364 26.8676 57.933 26.7284 58.1904 26.4812L57.8629 26.14C57.6753 26.3202 57.4911 26.3946 57.3056 26.3946V26.8676ZM58.1939 26.4778C58.449 26.2227 58.6277 25.9006 58.735 25.5202L58.2798 25.3918C58.1912 25.7058 58.0495 25.9534 57.8595 26.1434L58.1939 26.4778ZM58.5074 25.6925H59.0682V25.2195H58.5074V25.6925ZM58.8445 25.3794C58.5221 26.3204 58.1217 26.9175 57.6677 27.2227L57.9316 27.6152C58.5103 27.226 58.9556 26.5145 59.2919 25.5326L58.8445 25.3794ZM57.6701 27.2211C57.1839 27.5397 56.7163 27.6899 56.264 27.6899V28.1628C56.8266 28.1628 57.3828 27.9748 57.9293 27.6167L57.6701 27.2211ZM58.7825 27.5258L58.6125 27.6901L58.6153 27.693L58.7825 27.5258ZM58.5021 25.456L58.2707 25.407L58.2702 25.4096L58.5021 25.456ZM59.4101 21.1696V20.9331H59.2185L59.1788 21.1206L59.4101 21.1696ZM61.333 21.1696L61.5643 21.2186L61.6248 20.9331H61.333V21.1696ZM60.3715 25.7097L60.1402 25.6607L60.1397 25.6633L60.3715 25.7097ZM61.373 26.324L61.5515 26.4792L61.5547 26.4754L61.373 26.324ZM61.8003 25.456L62.0273 25.5224L62.0298 25.5138L62.0317 25.505L61.8003 25.456ZM62.7084 21.1696V20.9331H62.5167L62.477 21.1206L62.7084 21.1696ZM64.6313 21.1696L64.8626 21.2186L64.923 20.9331H64.6313V21.1696ZM63.6698 25.7097L63.8986 25.7707L63.9012 25.7587L63.6698 25.7097ZM63.7366 26.5243L63.5694 26.6915L63.5786 26.7007L63.5889 26.7089L63.7366 26.5243ZM64.8048 26.3106L64.6268 26.1549L64.6232 26.1592L64.8048 26.3106ZM65.2455 25.456V25.2195H65.0696L65.019 25.3881L65.2455 25.456ZM65.8063 25.456L66.0301 25.5326L66.1373 25.2195H65.8063V25.456ZM64.5778 27.4189L64.7139 27.6123L64.7146 27.6118L64.5778 27.4189ZM62.2009 27.6059L62.0372 27.7765L62.0406 27.7797L62.2009 27.6059ZM61.8003 26.6578L62.0355 26.6328L61.9624 25.9459L61.5992 26.5335L61.8003 26.6578ZM60.8389 27.6593L60.7288 27.45L60.7265 27.4513L60.8389 27.6593ZM59.8241 27.6899C59.4505 27.6899 59.1665 27.5753 58.9497 27.3586L58.6153 27.693C58.9327 28.0104 59.343 28.1628 59.8241 28.1628V27.6899ZM58.9525 27.3614C58.7526 27.1546 58.6317 26.8236 58.6317 26.324H58.1588C58.1588 26.8926 58.2961 27.3628 58.6125 27.6901L58.9525 27.3614ZM58.6317 26.324C58.6317 26.1236 58.6641 25.8515 58.734 25.5024L58.2702 25.4096C58.1976 25.7727 58.1588 26.0792 58.1588 26.324H58.6317ZM58.7334 25.505L59.6414 21.2186L59.1788 21.1206L58.2707 25.407L58.7334 25.505ZM59.4101 21.4061H61.333V20.9331H59.4101V21.4061ZM61.1016 21.1206L60.1402 25.6607L60.6029 25.7587L61.5643 21.2186L61.1016 21.1206ZM60.1397 25.6633C60.1104 25.8096 60.095 25.9499 60.095 26.0836H60.568C60.568 25.9859 60.5792 25.877 60.6034 25.7561L60.1397 25.6633ZM60.095 26.0836C60.095 26.288 60.1311 26.484 60.2408 26.6339C60.3605 26.7975 60.5386 26.8676 60.7321 26.8676V26.3946C60.6585 26.3946 60.6363 26.3735 60.6225 26.3546C60.5986 26.322 60.568 26.2443 60.568 26.0836H60.095ZM60.7321 26.8676C61.0563 26.8676 61.333 26.7304 61.5515 26.4791L61.1946 26.1688C61.057 26.3271 60.9064 26.3946 60.7321 26.3946V26.8676ZM61.5547 26.4754C61.7596 26.2294 61.9145 25.9078 62.0273 25.5224L61.5734 25.3896C61.4725 25.7342 61.3425 25.9912 61.1914 26.1726L61.5547 26.4754ZM62.0317 25.505L62.9397 21.2186L62.477 21.1206L61.569 25.407L62.0317 25.505ZM62.7084 21.4061H64.6313V20.9331H62.7084V21.4061ZM64.3999 21.1206L63.4385 25.6607L63.9012 25.7587L64.8626 21.2186L64.3999 21.1206ZM63.4413 25.6488C63.3999 25.804 63.3799 25.9671 63.3799 26.137H63.8529C63.8529 26.0043 63.8685 25.8825 63.8983 25.7707L63.4413 25.6488ZM63.3799 26.137C63.3799 26.343 63.4252 26.5474 63.5694 26.6915L63.9038 26.3571C63.8877 26.341 63.8529 26.2871 63.8529 26.137H63.3799ZM63.5889 26.7089C63.7407 26.8304 63.9492 26.8676 64.1639 26.8676V26.3946C63.9868 26.3946 63.9105 26.3606 63.8843 26.3396L63.5889 26.7089ZM64.1639 26.8676C64.492 26.8676 64.7694 26.7225 64.9865 26.462L64.6232 26.1592C64.4842 26.326 64.3343 26.3946 64.1639 26.3946V26.8676ZM64.9828 26.4663C65.1978 26.2207 65.3583 25.9029 65.472 25.524L65.019 25.3881C64.919 25.7213 64.7858 25.9733 64.6269 26.1549L64.9828 26.4663ZM65.2455 25.6925H65.8063V25.2195H65.2455V25.6925ZM65.5826 25.3794C65.2593 26.3232 64.8707 26.9214 64.4411 27.226L64.7146 27.6118C65.2642 27.2222 65.6946 26.5117 66.0301 25.5326L65.5826 25.3794ZM64.4418 27.2256C63.9927 27.5415 63.5541 27.6899 63.1223 27.6899V28.1628C63.6698 28.1628 64.2015 27.9729 64.7139 27.6123L64.4418 27.2256ZM63.1223 27.6899C62.7855 27.6899 62.5401 27.5972 62.3613 27.4321L62.0406 27.7797C62.3247 28.0419 62.6936 28.1628 63.1223 28.1628V27.6899ZM62.3647 27.4353C62.1949 27.2723 62.0763 27.0159 62.0355 26.6328L61.5652 26.6828C61.6135 27.1365 61.7619 27.5122 62.0372 27.7765L62.3647 27.4353ZM61.5992 26.5335C61.3083 27.004 61.0154 27.2992 60.7288 27.45L60.949 27.8686C61.339 27.6633 61.687 27.2909 62.0015 26.7821L61.5992 26.5335ZM60.7265 27.4513C60.4288 27.6122 60.1289 27.6899 59.8241 27.6899V28.1628C60.2136 28.1628 60.5902 28.0625 60.9514 27.8673L60.7265 27.4513ZM65.5778 27.4056L65.4084 27.5706L65.4084 27.5706L65.5778 27.4056ZM65.4576 23.7067L65.2355 23.6255L65.235 23.627L65.4576 23.7067ZM66.6327 21.864L66.7969 22.0341L66.797 22.034L66.6327 21.864ZM69.3167 21.2898L69.4523 21.096L69.4523 21.096L69.3167 21.2898ZM69.5838 21.8373H69.3473L69.815 21.8865L69.5838 21.8373ZM70.2381 18.766L70.2064 18.5317L70.0415 18.5539L70.0068 18.7167L70.2381 18.766ZM72.2144 18.4989L72.4457 18.5482L72.5156 18.2196L72.1827 18.2646L72.2144 18.4989ZM70.6787 25.7097L70.9075 25.7707L70.91 25.759L70.6787 25.7097ZM70.7455 26.5243L70.5783 26.6915L70.5876 26.7007L70.5978 26.7089L70.7455 26.5243ZM71.8138 26.3106L71.6358 26.1549L71.6321 26.1592L71.8138 26.3106ZM72.2544 25.456V25.2195H72.0785L72.0279 25.3881L72.2544 25.456ZM72.8153 25.456L73.0391 25.5323L73.1457 25.2195H72.8153V25.456ZM69.2366 27.5525L69.0803 27.73L69.0838 27.733L69.2366 27.5525ZM68.8226 26.6979L69.0567 26.6644L68.9676 26.0409L68.6244 26.569L68.8226 26.6979ZM67.9814 27.5792L67.8454 27.3857L67.8429 27.3875L67.9814 27.5792ZM68.3553 26.3373L68.199 26.1598L68.1955 26.163L68.3553 26.3373ZM68.8093 25.5228L69.0397 25.5759L69.0457 25.5497V25.5228H68.8093ZM68.8093 25.456L68.578 25.4065L68.5728 25.431V25.456H68.8093ZM69.4636 22.3981L69.6948 22.4476L69.7065 22.3931L69.6926 22.3392L69.4636 22.3981ZM67.9547 22.5583L68.1488 22.6934L68.1501 22.6914L67.9547 22.5583ZM67.287 24.0539L67.5149 24.117L67.5151 24.1161L67.287 24.0539ZM67.2336 26.4442L67.0663 26.6115L67.0722 26.617L67.2336 26.4442ZM66.8463 27.6899C66.3994 27.6899 66.0386 27.5397 65.7471 27.2406L65.4084 27.5706C65.7935 27.9658 66.2785 28.1628 66.8463 28.1628V27.6899ZM65.7471 27.2406C65.4698 26.9559 65.3068 26.4853 65.3068 25.7765H64.8339C64.8339 26.5454 65.0092 27.1609 65.4084 27.5706L65.7471 27.2406ZM65.3068 25.7765C65.3068 25.1489 65.4298 24.486 65.6802 23.7864L65.235 23.627C64.9691 24.3696 64.8339 25.0865 64.8339 25.7765H65.3068ZM65.6797 23.788C65.9355 23.0888 66.3085 22.5057 66.7969 22.0341L66.4684 21.6938C65.9243 22.2193 65.5138 22.8647 65.2355 23.6255L65.6797 23.788ZM66.797 22.034C67.2788 21.5686 67.8432 21.3393 68.5021 21.3393V20.8664C67.7189 20.8664 67.0371 21.1445 66.4684 21.6939L66.797 22.034ZM68.5021 21.3393C68.8483 21.3393 69.0616 21.3999 69.1811 21.4835L69.4523 21.096C69.2157 20.9304 68.886 20.8664 68.5021 20.8664V21.3393ZM69.1811 21.4835C69.3005 21.5671 69.3473 21.6617 69.3473 21.7838H69.8202C69.8202 21.4965 69.689 21.2617 69.4523 21.096L69.1811 21.4835ZM69.3473 21.7838V21.8373H69.8202V21.7838H69.3473ZM69.815 21.8865L70.4694 18.8153L70.0068 18.7167L69.3525 21.788L69.815 21.8865ZM70.2697 19.0003L72.246 18.7333L72.1827 18.2646L70.2064 18.5317L70.2697 19.0003ZM71.9831 18.4497L70.4475 25.6605L70.91 25.759L72.4457 18.5482L71.9831 18.4497ZM70.4503 25.6488C70.4089 25.804 70.3889 25.9671 70.3889 26.137H70.8618C70.8618 26.0043 70.8774 25.8825 70.9072 25.7707L70.4503 25.6488ZM70.3889 26.137C70.3889 26.343 70.4342 26.5474 70.5783 26.6915L70.9127 26.3571C70.8966 26.341 70.8618 26.2871 70.8618 26.137H70.3889ZM70.5978 26.7089C70.7496 26.8304 70.9582 26.8676 71.1728 26.8676V26.3946C70.9958 26.3946 70.9194 26.3606 70.8932 26.3396L70.5978 26.7089ZM71.1728 26.8676C71.5009 26.8676 71.7783 26.7225 71.9954 26.462L71.6321 26.1592C71.4931 26.326 71.3432 26.3946 71.1728 26.3946V26.8676ZM71.9917 26.4663C72.2067 26.2207 72.3673 25.9029 72.4809 25.524L72.0279 25.3881C71.9279 25.7213 71.7947 25.9733 71.6358 26.1549L71.9917 26.4663ZM72.2544 25.6925H72.8153V25.2195H72.2544V25.6925ZM72.5914 25.3797C72.328 26.1527 71.9867 26.7097 71.5797 27.0721C71.1776 27.4302 70.699 27.6098 70.1313 27.6098V28.0827C70.8098 28.0827 71.4017 27.8639 71.8943 27.4253C72.3819 26.991 72.7595 26.3528 73.0391 25.5323L72.5914 25.3797ZM70.1313 27.6098C69.8103 27.6098 69.5698 27.5247 69.3893 27.372L69.0838 27.733C69.3663 27.972 69.7222 28.0827 70.1313 28.0827V27.6098ZM69.3928 27.375C69.2231 27.2256 69.1044 26.9982 69.0567 26.6644L68.5885 26.7313C68.6477 27.1453 68.805 27.4877 69.0804 27.73L69.3928 27.375ZM68.6244 26.569C68.4084 26.9012 68.1487 27.1726 67.8454 27.3857L68.1173 27.7727C68.4728 27.5229 68.7739 27.2067 69.0209 26.8267L68.6244 26.569ZM67.8429 27.3875C67.5669 27.5868 67.2382 27.6899 66.8463 27.6899V28.1628C67.3269 28.1628 67.7549 28.0345 68.1198 27.7709L67.8429 27.3875ZM67.7143 26.8676C68.0055 26.8676 68.2735 26.733 68.5151 26.5116L68.1955 26.163C68.0097 26.3333 67.8504 26.3946 67.7143 26.3946V26.8676ZM68.5115 26.5148C68.7782 26.2802 68.9507 25.9614 69.0397 25.5759L68.5789 25.4696C68.5076 25.7785 68.3775 26.0028 68.199 26.1598L68.5115 26.5148ZM69.0457 25.5228V25.456H68.5728V25.5228H69.0457ZM69.0405 25.5055L69.6948 22.4476L69.2324 22.3486L68.578 25.4065L69.0405 25.5055ZM69.6926 22.3392C69.6445 22.1521 69.5591 21.9864 69.4202 21.8677C69.2784 21.7467 69.1038 21.6943 68.9161 21.6943V22.1672C69.0133 22.1672 69.0724 22.1927 69.1131 22.2274C69.1566 22.2646 69.2026 22.3325 69.2346 22.457L69.6926 22.3392ZM68.9161 21.6943C68.4519 21.6943 68.0681 21.9715 67.7592 22.4253L68.1501 22.6914C68.411 22.3083 68.6681 22.1672 68.9161 22.1672V21.6943ZM67.7605 22.4233C67.4573 22.8592 67.2247 23.3837 67.0589 23.9917L67.5151 24.1161C67.6698 23.5491 67.8823 23.0764 68.1488 22.6934L67.7605 22.4233ZM67.0591 23.9908C66.895 24.5833 66.8102 25.1172 66.8102 25.5895H67.2831C67.2831 25.1717 67.3585 24.6818 67.5149 24.117L67.0591 23.9908ZM66.8102 25.5895C66.8102 25.8212 66.8262 26.0223 66.8624 26.1876C66.8975 26.3482 66.9574 26.5024 67.0664 26.6114L67.4008 26.2769C67.3851 26.2613 67.3516 26.2107 67.3244 26.0865C67.2982 25.9669 67.2831 25.803 67.2831 25.5895H66.8102ZM67.0722 26.617C67.2507 26.7836 67.469 26.8676 67.7143 26.8676V26.3946C67.5857 26.3946 67.4836 26.354 67.3949 26.2713L67.0722 26.617ZM73.7419 20.1414L73.9091 19.9742L73.9091 19.9742L73.7419 20.1414ZM73.7419 18.6458L73.9091 18.8131L73.9126 18.8094L73.7419 18.6458ZM75.2374 18.6458L75.0666 18.8096L75.0738 18.8165L75.2374 18.6458ZM75.2374 20.1414L75.0738 19.9706L75.0702 19.9742L75.2374 20.1414ZM72.5401 27.5258L72.37 27.6901L72.3729 27.693L72.5401 27.5258ZM72.2596 25.456L72.0283 25.407L72.0278 25.4096L72.2596 25.456ZM73.1677 21.1696V20.9331H72.976L72.9363 21.1206L73.1677 21.1696ZM75.0906 21.1696L75.3219 21.2186L75.3823 20.9331H75.0906V21.1696ZM74.1291 25.7097L74.3579 25.7707L74.3605 25.7587L74.1291 25.7097ZM74.1959 26.5243L74.0287 26.6915L74.0379 26.7007L74.0482 26.7089L74.1959 26.5243ZM75.3443 26.3106L75.5081 26.4812L75.5115 26.4778L75.3443 26.3106ZM75.825 25.456V25.2195H75.646L75.5974 25.3918L75.825 25.456ZM76.3858 25.456L76.6095 25.5326L76.7168 25.2195H76.3858V25.456ZM75.1173 27.4189L75.2469 27.6168L75.2492 27.6152L75.1173 27.4189ZM74.4897 20.212C74.2576 20.212 74.0688 20.1339 73.9091 19.9742L73.5747 20.3086C73.8245 20.5584 74.1342 20.685 74.4897 20.685V20.212ZM73.9091 19.9742C73.7494 19.8145 73.6712 19.6257 73.6712 19.3936H73.1983C73.1983 19.7491 73.3248 20.0588 73.5747 20.3086L73.9091 19.9742ZM73.6712 19.3936C73.6712 19.1615 73.7494 18.9727 73.9091 18.813L73.5747 18.4786C73.3248 18.7284 73.1983 19.0381 73.1983 19.3936H73.6712ZM73.9126 18.8094C74.0731 18.6419 74.2609 18.5618 74.4897 18.5618V18.0889C74.1309 18.0889 73.8201 18.2224 73.5711 18.4822L73.9126 18.8094ZM74.4897 18.5618C74.7184 18.5618 74.9062 18.6419 75.0667 18.8094L75.4082 18.4822C75.1592 18.2224 74.8484 18.0889 74.4897 18.0889V18.5618ZM75.0738 18.8165C75.2413 18.9771 75.3214 19.1648 75.3214 19.3936H75.7944C75.7944 19.0348 75.6609 18.7241 75.4011 18.4751L75.0738 18.8165ZM75.3214 19.3936C75.3214 19.6224 75.2413 19.8101 75.0738 19.9707L75.4011 20.3121C75.6609 20.0631 75.7944 19.7524 75.7944 19.3936H75.3214ZM75.0702 19.9742C74.9105 20.1339 74.7217 20.212 74.4897 20.212V20.685C74.8451 20.685 75.1548 20.5584 75.4046 20.3086L75.0702 19.9742ZM73.5816 27.6899C73.2081 27.6899 72.924 27.5753 72.7073 27.3586L72.3729 27.693C72.6902 28.0104 73.1006 28.1628 73.5816 28.1628V27.6899ZM72.7101 27.3614C72.5101 27.1546 72.3893 26.8236 72.3893 26.324H71.9164C71.9164 26.8926 72.0537 27.3628 72.37 27.6901L72.7101 27.3614ZM72.3893 26.324C72.3893 26.1236 72.4217 25.8515 72.4915 25.5024L72.0278 25.4096C71.9552 25.7727 71.9164 26.0792 71.9164 26.324H72.3893ZM72.491 25.505L73.399 21.2186L72.9363 21.1206L72.0283 25.407L72.491 25.505ZM73.1677 21.4061H75.0906V20.9331H73.1677V21.4061ZM74.8592 21.1206L73.8978 25.6607L74.3605 25.7587L75.3219 21.2186L74.8592 21.1206ZM73.9006 25.6488C73.8592 25.804 73.8392 25.9671 73.8392 26.137H74.3122C74.3122 26.0043 74.3278 25.8825 74.3576 25.7707L73.9006 25.6488ZM73.8392 26.137C73.8392 26.343 73.8845 26.5474 74.0287 26.6915L74.3631 26.3571C74.347 26.341 74.3122 26.2871 74.3122 26.137H73.8392ZM74.0482 26.7089C74.2 26.8304 74.4085 26.8676 74.6232 26.8676V26.3946C74.4461 26.3946 74.3698 26.3606 74.3436 26.3396L74.0482 26.7089ZM74.6232 26.8676C74.954 26.8676 75.2506 26.7284 75.508 26.4812L75.1805 26.14C74.9928 26.3202 74.8087 26.3946 74.6232 26.3946V26.8676ZM75.5115 26.4778C75.7666 26.2227 75.9453 25.9006 76.0526 25.5202L75.5974 25.3918C75.5088 25.7058 75.367 25.9534 75.1771 26.1434L75.5115 26.4778ZM75.825 25.6925H76.3858V25.2195H75.825V25.6925ZM76.1621 25.3794C75.8397 26.3204 75.4392 26.9175 74.9853 27.2227L75.2492 27.6152C75.8279 27.226 76.2732 26.5145 76.6095 25.5326L76.1621 25.3794ZM74.9877 27.2211C74.5014 27.5397 74.0339 27.6899 73.5816 27.6899V28.1628C74.1442 28.1628 74.7004 27.9748 75.2468 27.6167L74.9877 27.2211ZM76.2069 27.3922L76.0503 27.5694L76.0503 27.5694L76.2069 27.3922ZM75.9933 23.7735L76.2179 23.8474L76.2181 23.8466L75.9933 23.7735ZM77.1683 21.864L77.3342 22.0326L77.3356 22.0312L77.1683 21.864ZM80.9473 22.8521L80.7114 22.8678L80.7298 23.1441L80.9997 23.0827L80.9473 22.8521ZM81.4681 22.5316L81.6444 22.6894L81.6483 22.6848L81.4681 22.5316ZM81.8954 21.9307V21.6943H81.7615L81.6927 21.8091L81.8954 21.9307ZM82.3227 21.9307L82.5342 22.0365L82.7053 21.6943H82.3227V21.9307ZM81.6818 23.0658L81.8755 23.2014L81.8775 23.1984L81.6818 23.0658ZM80.9473 23.7201L80.832 23.5137L80.7196 23.5765L80.7113 23.705L80.9473 23.7201ZM80.4266 25.9234L80.2121 25.8237L80.211 25.8262L80.4266 25.9234ZM79.3049 27.3922L79.4444 27.5832L79.4468 27.5814L79.3049 27.3922ZM79.2248 25.8967L79.4334 26.0079L79.4334 26.0079L79.2248 25.8967ZM79.8123 23.9204L80.0466 23.9523L80.0721 23.7653L79.8953 23.699L79.8123 23.9204ZM79.8657 22.6251L79.9653 22.8396L80.1118 22.7716L80.1017 22.6104L79.8657 22.6251ZM79.7188 22.0376L79.5174 22.1615L79.5231 22.1707L79.5297 22.1794L79.7188 22.0376ZM78.517 22.5049L78.7164 22.6322L78.7176 22.6303L78.517 22.5049ZM77.8627 24.0406L77.635 23.9769L77.6343 23.9792L77.8627 24.0406ZM77.7692 26.4842L77.5706 26.6127L77.5744 26.6182L77.7692 26.4842ZM77.7692 27.6632C77.151 27.6632 76.6918 27.5051 76.3635 27.215L76.0503 27.5694C76.4877 27.9559 77.0699 28.1361 77.7692 28.1361V27.6632ZM76.3635 27.215C76.0503 26.9382 75.8692 26.4819 75.8692 25.7898H75.3962C75.3962 26.5577 75.598 27.1697 76.0503 27.5694L76.3635 27.215ZM75.8692 25.7898C75.8692 25.2061 75.9835 24.5593 76.2179 23.8474L75.7686 23.6995C75.5223 24.4477 75.3962 25.1451 75.3962 25.7898H75.8692ZM76.2181 23.8466C76.447 23.1431 76.8188 22.5395 77.3342 22.0326L77.0025 21.6954C76.4319 22.2567 76.0202 22.9261 75.7684 23.7003L76.2181 23.8466ZM77.3356 22.0312C77.8295 21.5372 78.4615 21.2859 79.2515 21.2859V20.8129C78.35 20.8129 77.5932 21.1047 77.0011 21.6968L77.3356 22.0312ZM79.2515 21.2859C79.7304 21.2859 80.0646 21.4214 80.291 21.6621C80.5222 21.9079 80.6733 22.2972 80.7114 22.8678L81.1833 22.8364C81.1412 22.2052 80.9696 21.6932 80.6355 21.3381C80.2967 20.9779 79.823 20.8129 79.2515 20.8129V21.2859ZM80.9997 23.0827C81.2495 23.0259 81.4647 22.8901 81.6443 22.6893L81.2919 22.374C81.1688 22.5115 81.0369 22.5893 80.8949 22.6215L80.9997 23.0827ZM81.6483 22.6848C81.8089 22.4959 81.9587 22.2848 82.0982 22.0524L81.6927 21.8091C81.5651 22.0217 81.43 22.2113 81.2879 22.3785L81.6483 22.6848ZM81.8954 22.1672H82.3227V21.6943H81.8954V22.1672ZM82.1112 21.825C81.8731 22.3013 81.6647 22.6693 81.486 22.9331L81.8775 23.1984C82.0727 22.9102 82.2917 22.5216 82.5342 22.0365L82.1112 21.825ZM81.488 22.9302C81.3228 23.1662 81.1056 23.3608 80.832 23.5137L81.0627 23.9265C81.3945 23.7411 81.6668 23.4995 81.8755 23.2014L81.488 22.9302ZM80.7113 23.705C80.6594 24.5183 80.4913 25.2231 80.2121 25.8237L80.641 26.023C80.9494 25.3596 81.1284 24.5954 81.1833 23.7351L80.7113 23.705ZM80.211 25.8262C79.9393 26.4291 79.5882 26.8842 79.163 27.2031L79.4468 27.5814C79.9474 27.2059 80.3441 26.6818 80.6421 26.0205L80.211 25.8262ZM79.1654 27.2013C78.742 27.5107 78.2787 27.6632 77.7692 27.6632V28.1361C78.3814 28.1361 78.942 27.9503 79.4444 27.5832L79.1654 27.2013ZM78.3034 26.9343C78.7748 26.9343 79.142 26.5543 79.4334 26.0079L79.0161 25.7854C78.7377 26.3073 78.4907 26.4614 78.3034 26.4614V26.9343ZM79.4334 26.0079C79.7348 25.4428 79.9371 24.7554 80.0466 23.9523L79.578 23.8884C79.4739 24.6521 79.2845 25.2822 79.0161 25.7854L79.4334 26.0079ZM79.8953 23.699C79.8421 23.679 79.8068 23.6479 79.7806 23.5988C79.7514 23.5441 79.7283 23.4559 79.7283 23.3195H79.2554C79.2554 23.5035 79.2857 23.6758 79.3633 23.8213C79.4439 23.9726 79.5689 24.0816 79.7293 24.1418L79.8953 23.699ZM79.7283 23.3195C79.7283 23.1729 79.7547 23.0696 79.7935 22.9976C79.8305 22.929 79.8847 22.877 79.9653 22.8396L79.7661 22.4106C79.5974 22.4889 79.4648 22.6106 79.3771 22.7734C79.2912 22.9328 79.2554 23.1189 79.2554 23.3195H79.7283ZM80.1017 22.6104C80.0837 22.3212 80.0332 22.0627 79.908 21.8957L79.5297 22.1794C79.5647 22.2261 79.6122 22.3592 79.6297 22.6399L80.1017 22.6104ZM79.9202 21.9136C79.7951 21.7103 79.5864 21.6275 79.3583 21.6275V22.1004C79.4685 22.1004 79.5001 22.1334 79.5174 22.1615L79.9202 21.9136ZM79.3583 21.6275C78.9377 21.6275 78.5956 21.9331 78.3165 22.3796L78.7176 22.6303C78.9726 22.2221 79.1913 22.1004 79.3583 22.1004V21.6275ZM78.3177 22.3777C78.0353 22.8202 77.8088 23.3548 77.635 23.9769L78.0905 24.1042C78.2549 23.5156 78.4647 23.0265 78.7164 22.6322L78.3177 22.3777ZM77.6343 23.9792C77.4705 24.589 77.3859 25.1356 77.3859 25.6162H77.8588C77.8588 25.1889 77.9344 24.685 78.0911 24.1019L77.6343 23.9792ZM77.3859 25.6162C77.3859 25.8377 77.3985 26.0311 77.4259 26.1932C77.4528 26.3521 77.4967 26.4983 77.5707 26.6127L77.9678 26.3558C77.9439 26.3188 77.9143 26.2447 77.8922 26.1143C77.8707 25.9871 77.8588 25.8221 77.8588 25.6162H77.3859ZM77.5744 26.6182C77.7353 26.8522 78.0079 26.9343 78.3034 26.9343V26.4614C78.0825 26.4614 77.9991 26.4011 77.9641 26.3502L77.5744 26.6182Z" fill="white"/>
<path d="M15.6086 13.8054C15.569 13.8744 14.6081 13.9578 14.5201 13.4499C14.4327 12.9456 15.0272 12.3636 14.9032 11.5618C14.7733 10.7219 13.909 9.66683 13.0838 9.3783C11.2804 8.74782 9.89535 9.64474 9.38733 9.97542C8.95625 10.256 7.23863 12.1863 7.24319 13.1698C7.24953 14.5406 8.06885 16.164 9.0881 16.3776C10.1315 16.5961 9.89035 17.2951 8.84263 17.2146C6.24967 17.0154 5.53159 13.7008 6.84242 11.417C8.15324 9.13316 11.1255 7.88999 13.481 8.64031C15.8366 9.39062 16.9194 11.5215 15.6086 13.8054Z" fill="white" stroke="white" stroke-width="0.517642"/>
<path d="M2.91038 18.2079C2.95384 18.1322 3.93111 18.0163 3.9957 18.5632C4.12703 19.6752 3.55224 22.036 5.15877 22.6028C6.95484 23.2364 8.49626 22.5549 9.02676 22.1836C9.47691 21.8686 11.3055 20.3827 10.7237 19.6032C10.0261 18.6684 8.36148 17.709 7.84457 17.1536C6.3768 15.5767 6.80458 15.6089 7.7555 15.9118C10.1051 16.6603 13.1118 18.0512 11.6739 20.5564C10.2361 23.0616 7.16567 24.4857 4.81602 23.7373C2.46638 22.9888 1.47251 20.7131 2.91038 18.2079Z" fill="white" stroke="white" stroke-width="0.541462"/>
<path d="M13.3872 6.99817C3.48582 24.2492 3.44029 24.3285 3.44029 24.3285Z" fill="white"/>
<path d="M13.3872 6.99817C3.48582 24.2492 3.44029 24.3285 3.44029 24.3285" stroke="white" stroke-width="1.10949"/>
<path d="M15.1464 7.60437C5.24503 24.8554 5.19951 24.9347 5.19951 24.9347Z" fill="white"/>
<path d="M15.1464 7.60437C5.24503 24.8554 5.19951 24.9347 5.19951 24.9347" stroke="white" stroke-width="1.10949"/>
<path d="M2.55519 21.3497C2.85268 21.3262 3.10844 21.4326 3.35369 21.5943C3.91243 21.9627 4.51831 22.2869 5.13099 22.5454C5.55916 22.7261 5.93912 23.0441 6.36737 23.2248C6.51989 23.2892 7.40837 23.6099 7.37193 23.6868C7.29491 23.8493 6.34815 24.3769 6.13555 24.5564C5.29007 25.27 4.13716 26.2345 3.2249 26.8119C3.14938 26.8597 2.3255 27.4936 2.29761 27.4641C2.20932 27.371 2.34913 26.8702 2.34913 26.7576C2.34913 25.5514 2.36514 24.3641 2.45217 23.1705C2.49701 22.5554 2.44086 21.9527 2.55519 21.3497Z" fill="white" stroke="white" stroke-width="0.695494"/>
<path d="M21.4864 2.59264L28.9512 7.27836C29.5224 7.6369 29.7234 8.42424 29.4002 9.03693L27.682 12.2935C27.3587 12.9062 26.6336 13.1122 26.0624 12.7537L18.5976 8.06797C18.0264 7.70943 17.8254 6.92209 18.1486 6.3094L19.8668 3.05283C20.1901 2.44013 20.9152 2.2341 21.4864 2.59264Z" fill="white" stroke="white" stroke-width="0.417563"/>
<path d="M11.8183 6.6467L17.6988 9.91765C17.799 9.97334 17.8226 10.094 17.7517 10.187C17.6808 10.2801 17.5421 10.3104 17.442 10.2547L11.5614 6.98378C11.4613 6.92809 11.4376 6.80748 11.5085 6.71439C11.5795 6.62131 11.7181 6.591 11.8183 6.6467Z" stroke="white" stroke-width="0.707425"/>
<path d="M14.5983 8.06508L18.4644 1.35716C18.5781 1.15991 18.8463 1.02292 19.0635 1.05119C19.2807 1.07946 19.3646 1.26229 19.2509 1.45955L15.3847 8.16746C15.271 8.36472 15.0028 8.50171 14.7856 8.47344C14.5684 8.44516 14.4846 8.26234 14.5983 8.06508Z" stroke="white" stroke-width="1.03655"/>
<path d="M29.3861 7.84682C18.9916 1.02545 18.9916 1.02545 18.9916 1.02545" stroke="white" stroke-width="0.857566" stroke-linecap="round"/>
<path d="M2.78699 18.5778L7.21735 10.7513" stroke="white" stroke-width="0.472936" stroke-linecap="round"/>
<path d="M10.9041 21.9168L15.7914 13.4996" stroke="white" stroke-width="0.432795" stroke-linecap="round"/>
<path d="M4.42035 24.0372L0.535583 30.4019Z" fill="white"/>
<path d="M4.42035 24.0372L0.535583 30.4019" stroke="white" stroke-width="1.02933" stroke-linecap="round"/>
<path d="M0.657227 30.3175C0.657227 30.3175 7.76797 37.7484 24.1621 36.1315C34.2617 35.1354 42.6657 31.7772 64.6122 31.4379C82.5669 31.1603 91.5415 36.6653 91.5415 36.6653" stroke="white" stroke-width="1.02933" stroke-linecap="round"/>
</svg>
